<svg width="17" height="16" viewBox="0 0 17 16" fill="none" xmlns="http://www.w3.org/2000/svg">
<path d="M13.7413 8.41277L8.50589 13.7147L3.2705 8.41277C2.92518 8.06917 2.65318 7.65618 2.47162 7.1998C2.29006 6.74343 2.20288 6.25356 2.21557 5.76104C2.22825 5.26852 2.34053 4.78403 2.54534 4.33806C2.75014 3.89209 3.04303 3.49432 3.40557 3.16978C3.7681 2.84524 4.19242 2.60098 4.65182 2.45236C5.11121 2.30375 5.59572 2.25401 6.07483 2.30627C6.55395 2.35853 7.01729 2.51166 7.43569 2.75602C7.85408 3.00038 8.21846 3.33068 8.50589 3.72611C8.79455 3.33355 9.15936 3.00614 9.57746 2.76437C9.99557 2.5226 10.458 2.37168 10.9358 2.32106C11.4135 2.27043 11.8964 2.32118 12.3541 2.47014C12.8118 2.6191 13.2345 2.86306 13.5958 3.18676C13.957 3.51045 14.2491 3.9069 14.4536 4.3513C14.6581 4.79571 14.7707 5.27849 14.7844 5.76945C14.798 6.2604 14.7124 6.74895 14.533 7.20452C14.3535 7.6601 14.0839 8.07289 13.7413 8.41705" fill="#000E55"/>
<path d="M13.7413 8.41277L8.50589 13.7147L3.2705 8.41277C2.92518 8.06917 2.65318 7.65618 2.47162 7.1998C2.29006 6.74343 2.20288 6.25356 2.21557 5.76104C2.22825 5.26852 2.34053 4.78403 2.54534 4.33806C2.75014 3.89209 3.04303 3.49432 3.40557 3.16978C3.7681 2.84524 4.19242 2.60098 4.65182 2.45236C5.11121 2.30375 5.59572 2.25401 6.07483 2.30627C6.55395 2.35853 7.01729 2.51166 7.43569 2.75602C7.85408 3.00038 8.21846 3.33068 8.50589 3.72611C8.79455 3.33355 9.15936 3.00614 9.57746 2.76437C9.99557 2.5226 10.458 2.37168 10.9358 2.32106C11.4135 2.27043 11.8964 2.32118 12.3541 2.47014C12.8118 2.6191 13.2345 2.86306 13.5958 3.18676C13.957 3.51045 14.249 3.9069 14.4536 4.3513C14.6581 4.79571 14.7707 5.27849 14.7844 5.76945C14.798 6.2604 14.7124 6.74895 14.533 7.20452C14.3535 7.6601 14.0839 8.07289 13.7413 8.41705" stroke="#000E55" stroke-width="0.7" stroke-linecap="round" stroke-linejoin="round"/>
</svg>
