<svg width="171" height="54" viewBox="0 0 171 54" fill="none" xmlns="http://www.w3.org/2000/svg">
<path d="M0.53933 6.76625C0.179777 6.44099 0 5.99879 0 5.43963C0 4.87682 0.179777 4.43279 0.53933 4.10753C0.902516 3.78227 1.35468 3.61964 1.89583 3.61964C2.44061 3.61964 2.89277 3.78227 3.25233 4.10753C3.61551 4.43279 3.7971 4.87682 3.7971 5.43963C3.7971 5.99879 3.61551 6.44099 3.25233 6.76625C2.89277 7.09151 2.44061 7.25414 1.89583 7.25414C1.35468 7.25414 0.902516 7.09151 0.53933 6.76625Z" fill="#3A4C79"/>
<path d="M0.53933 6.76625C0.179777 6.44099 0 5.99879 0 5.43963C0 4.87682 0.179777 4.43279 0.53933 4.10753C0.902516 3.78227 1.35468 3.61964 1.89583 3.61964C2.44061 3.61964 2.89277 3.78227 3.25233 4.10753C3.61551 4.43279 3.7971 4.87682 3.7971 5.43963C3.7971 5.99879 3.61551 6.44099 3.25233 6.76625C2.89277 7.09151 2.44061 7.25414 1.89583 7.25414C1.35468 7.25414 0.902516 7.09151 0.53933 6.76625Z" fill="black" fill-opacity="0.2"/>
<path d="M10.9391 8.52594V3.19205C10.9391 3.09337 10.97 3.01297 11.0318 2.95085C11.0971 2.88506 11.177 2.85217 11.2715 2.85217H14.5292C15.2229 2.85217 15.784 2.98739 16.2126 3.25783C16.6448 3.52827 16.8609 3.93576 16.8609 4.4803C16.8609 5.02118 16.6375 5.43049 16.1908 5.70824C16.8264 6.02985 17.1442 6.50678 17.1442 7.13902C17.1442 7.77127 16.939 8.21713 16.5286 8.47661C16.1182 8.73243 15.5298 8.86034 14.7635 8.86034H11.2715C11.177 8.86034 11.0971 8.82928 11.0318 8.76715C10.97 8.70137 10.9391 8.62096 10.9391 8.52594ZM12.8241 7.63788H14.6327C14.8325 7.63788 14.985 7.58123 15.0904 7.46794C15.1993 7.35464 15.2538 7.2048 15.2538 7.01842C15.2538 6.83204 15.1993 6.6822 15.0904 6.5689C14.985 6.45561 14.8325 6.39897 14.6327 6.39897H12.8241V7.63788ZM12.8241 5.19843H14.4203C14.5837 5.19843 14.7163 5.14726 14.818 5.04493C14.9233 4.93895 14.9759 4.80373 14.9759 4.63927C14.9759 4.47482 14.9233 4.34142 14.818 4.23909C14.7163 4.13311 14.5837 4.08012 14.4203 4.08012H12.8241V5.19843Z" fill="#3A4C79"/>
<path d="M10.9391 8.52594V3.19205C10.9391 3.09337 10.97 3.01297 11.0318 2.95085C11.0971 2.88506 11.177 2.85217 11.2715 2.85217H14.5292C15.2229 2.85217 15.784 2.98739 16.2126 3.25783C16.6448 3.52827 16.8609 3.93576 16.8609 4.4803C16.8609 5.02118 16.6375 5.43049 16.1908 5.70824C16.8264 6.02985 17.1442 6.50678 17.1442 7.13902C17.1442 7.77127 16.939 8.21713 16.5286 8.47661C16.1182 8.73243 15.5298 8.86034 14.7635 8.86034H11.2715C11.177 8.86034 11.0971 8.82928 11.0318 8.76715C10.97 8.70137 10.9391 8.62096 10.9391 8.52594ZM12.8241 7.63788H14.6327C14.8325 7.63788 14.985 7.58123 15.0904 7.46794C15.1993 7.35464 15.2538 7.2048 15.2538 7.01842C15.2538 6.83204 15.1993 6.6822 15.0904 6.5689C14.985 6.45561 14.8325 6.39897 14.6327 6.39897H12.8241V7.63788ZM12.8241 5.19843H14.4203C14.5837 5.19843 14.7163 5.14726 14.818 5.04493C14.9233 4.93895 14.9759 4.80373 14.9759 4.63927C14.9759 4.47482 14.9233 4.34142 14.818 4.23909C14.7163 4.13311 14.5837 4.08012 14.4203 4.08012H12.8241V5.19843Z" fill="black" fill-opacity="0.2"/>
<path d="M20.2174 8.52594V3.19205C20.2174 3.09337 20.2482 3.01297 20.31 2.95085C20.3754 2.88506 20.4553 2.85217 20.5497 2.85217H21.6883C21.7863 2.85217 21.8662 2.88506 21.928 2.95085C21.9933 3.01297 22.026 3.09337 22.026 3.19205V6.79366L23.9436 3.24687C24.0018 3.13358 24.0907 3.04038 24.2106 2.96729C24.3304 2.89054 24.4467 2.85217 24.5592 2.85217H26.0846C26.1827 2.85217 26.2626 2.88506 26.3243 2.95085C26.3897 3.01297 26.4224 3.09337 26.4224 3.19205V8.52594C26.4224 8.62462 26.3897 8.70502 26.3243 8.76715C26.2626 8.82928 26.1827 8.86034 26.0846 8.86034H24.946C24.848 8.86034 24.7681 8.82928 24.7063 8.76715C24.6446 8.70137 24.6137 8.62096 24.6137 8.52594V4.92981L22.6961 8.46564C22.638 8.57163 22.549 8.66482 22.4292 8.74522C22.3093 8.82197 22.1931 8.86034 22.0805 8.86034H20.5497C20.4516 8.86034 20.3717 8.82928 20.31 8.76715C20.2482 8.70502 20.2174 8.62462 20.2174 8.52594Z" fill="#3A4C79"/>
<path d="M20.2174 8.52594V3.19205C20.2174 3.09337 20.2482 3.01297 20.31 2.95085C20.3754 2.88506 20.4553 2.85217 20.5497 2.85217H21.6883C21.7863 2.85217 21.8662 2.88506 21.928 2.95085C21.9933 3.01297 22.026 3.09337 22.026 3.19205V6.79366L23.9436 3.24687C24.0018 3.13358 24.0907 3.04038 24.2106 2.96729C24.3304 2.89054 24.4467 2.85217 24.5592 2.85217H26.0846C26.1827 2.85217 26.2626 2.88506 26.3243 2.95085C26.3897 3.01297 26.4224 3.09337 26.4224 3.19205V8.52594C26.4224 8.62462 26.3897 8.70502 26.3243 8.76715C26.2626 8.82928 26.1827 8.86034 26.0846 8.86034H24.946C24.848 8.86034 24.7681 8.82928 24.7063 8.76715C24.6446 8.70137 24.6137 8.62096 24.6137 8.52594V4.92981L22.6961 8.46564C22.638 8.57163 22.549 8.66482 22.4292 8.74522C22.3093 8.82197 22.1931 8.86034 22.0805 8.86034H20.5497C20.4516 8.86034 20.3717 8.82928 20.31 8.76715C20.2482 8.70502 20.2174 8.62462 20.2174 8.52594Z" fill="black" fill-opacity="0.2"/>
<path d="M29.8769 8.52594V3.19205C29.8769 3.09337 29.9078 3.01297 29.9695 2.95085C30.0349 2.88506 30.1148 2.85217 30.2092 2.85217H34.2842C34.3786 2.85217 34.4567 2.88506 34.5184 2.95085C34.5838 3.01297 34.6165 3.09337 34.6165 3.19205V3.8444C34.6165 3.93942 34.5838 4.01982 34.5184 4.0856C34.4567 4.14773 34.3786 4.17879 34.2842 4.17879H31.7619V8.52594C31.7619 8.62096 31.7292 8.70137 31.6638 8.76715C31.6021 8.82928 31.524 8.86034 31.4296 8.86034H30.2092C30.1148 8.86034 30.0349 8.82928 29.9695 8.76715C29.9078 8.70137 29.8769 8.62096 29.8769 8.52594Z" fill="#3A4C79"/>
<path d="M29.8769 8.52594V3.19205C29.8769 3.09337 29.9078 3.01297 29.9695 2.95085C30.0349 2.88506 30.1148 2.85217 30.2092 2.85217H34.2842C34.3786 2.85217 34.4567 2.88506 34.5184 2.95085C34.5838 3.01297 34.6165 3.09337 34.6165 3.19205V3.8444C34.6165 3.93942 34.5838 4.01982 34.5184 4.0856C34.4567 4.14773 34.3786 4.17879 34.2842 4.17879H31.7619V8.52594C31.7619 8.62096 31.7292 8.70137 31.6638 8.76715C31.6021 8.82928 31.524 8.86034 31.4296 8.86034H30.2092C30.1148 8.86034 30.0349 8.82928 29.9695 8.76715C29.9078 8.70137 29.8769 8.62096 29.8769 8.52594Z" fill="black" fill-opacity="0.2"/>
<path d="M37.5208 1.70645V1.52007C37.5208 1.32637 37.5753 1.17288 37.6843 1.05959C37.7968 0.946295 37.9512 0.889648 38.1473 0.889648H38.8228C39.0153 0.889648 39.1679 0.946295 39.2805 1.05959C39.393 1.16923 39.4493 1.32272 39.4493 1.52007V1.70645C39.4493 1.90015 39.393 2.05364 39.2805 2.16693C39.1715 2.28023 39.019 2.33687 38.8228 2.33687H38.1473C37.9548 2.33687 37.8023 2.28023 37.6897 2.16693C37.5771 2.05364 37.5208 1.90015 37.5208 1.70645ZM37.5426 8.52594V3.32362C37.5426 3.22494 37.5735 3.14454 37.6352 3.08241C37.7006 3.02028 37.7805 2.98922 37.8749 2.98922H39.0952C39.1933 2.98922 39.2732 3.02211 39.3349 3.08789C39.3967 3.15002 39.4275 3.2286 39.4275 3.32362V8.52594C39.4275 8.62462 39.3949 8.70502 39.3295 8.76715C39.2677 8.82928 39.1897 8.86034 39.0952 8.86034H37.8749C37.7769 8.86034 37.697 8.82928 37.6352 8.76715C37.5735 8.70502 37.5426 8.62462 37.5426 8.52594Z" fill="#3A4C79"/>
<path d="M37.5208 1.70645V1.52007C37.5208 1.32637 37.5753 1.17288 37.6843 1.05959C37.7968 0.946295 37.9512 0.889648 38.1473 0.889648H38.8228C39.0153 0.889648 39.1679 0.946295 39.2805 1.05959C39.393 1.16923 39.4493 1.32272 39.4493 1.52007V1.70645C39.4493 1.90015 39.393 2.05364 39.2805 2.16693C39.1715 2.28023 39.019 2.33687 38.8228 2.33687H38.1473C37.9548 2.33687 37.8023 2.28023 37.6897 2.16693C37.5771 2.05364 37.5208 1.90015 37.5208 1.70645ZM37.5426 8.52594V3.32362C37.5426 3.22494 37.5735 3.14454 37.6352 3.08241C37.7006 3.02028 37.7805 2.98922 37.8749 2.98922H39.0952C39.1933 2.98922 39.2732 3.02211 39.3349 3.08789C39.3967 3.15002 39.4275 3.2286 39.4275 3.32362V8.52594C39.4275 8.62462 39.3949 8.70502 39.3295 8.76715C39.2677 8.82928 39.1897 8.86034 39.0952 8.86034H37.8749C37.7769 8.86034 37.697 8.82928 37.6352 8.76715C37.5735 8.70502 37.5426 8.62462 37.5426 8.52594Z" fill="black" fill-opacity="0.2"/>
<path d="M42.3482 8.52594V7.8736C42.3482 7.77492 42.3791 7.69452 42.4408 7.63239C42.5062 7.56661 42.5879 7.53372 42.686 7.53372H43.1109L43.8573 4.51319C44.1333 3.40584 45.0449 2.85217 46.592 2.85217H49.0653C49.1634 2.85217 49.2433 2.88506 49.305 2.95085C49.3704 3.01297 49.4031 3.09337 49.4031 3.19205V8.52594C49.4031 8.62096 49.3704 8.70137 49.305 8.76715C49.2433 8.82928 49.1634 8.86034 49.0653 8.86034H42.686C42.5879 8.86034 42.5062 8.82928 42.4408 8.76715C42.3791 8.70137 42.3482 8.62096 42.3482 8.52594ZM44.8923 7.53372H47.5182V4.17879H46.5321C46.0055 4.17879 45.6714 4.44741 45.5297 4.98463L44.8923 7.53372Z" fill="#3A4C79"/>
<path d="M42.3482 8.52594V7.8736C42.3482 7.77492 42.3791 7.69452 42.4408 7.63239C42.5062 7.56661 42.5879 7.53372 42.686 7.53372H43.1109L43.8573 4.51319C44.1333 3.40584 45.0449 2.85217 46.592 2.85217H49.0653C49.1634 2.85217 49.2433 2.88506 49.305 2.95085C49.3704 3.01297 49.4031 3.09337 49.4031 3.19205V8.52594C49.4031 8.62096 49.3704 8.70137 49.305 8.76715C49.2433 8.82928 49.1634 8.86034 49.0653 8.86034H42.686C42.5879 8.86034 42.5062 8.82928 42.4408 8.76715C42.3791 8.70137 42.3482 8.62096 42.3482 8.52594ZM44.8923 7.53372H47.5182V4.17879H46.5321C46.0055 4.17879 45.6714 4.44741 45.5297 4.98463L44.8923 7.53372Z" fill="black" fill-opacity="0.2"/>
<path d="M52.8631 8.52594V3.19205C52.8631 3.09337 52.894 3.01297 52.9557 2.95085C53.0211 2.88506 53.101 2.85217 53.1954 2.85217H54.4157C54.5138 2.85217 54.5937 2.88506 54.6554 2.95085C54.7171 3.01297 54.748 3.09337 54.748 3.19205V5.15457H57.1341V3.19205C57.1341 3.09337 57.165 3.01297 57.2268 2.95085C57.2921 2.88506 57.3738 2.85217 57.4719 2.85217H58.6868C58.7848 2.85217 58.8647 2.88506 58.9265 2.95085C58.9882 3.01297 59.0191 3.09337 59.0191 3.19205V8.52594C59.0191 8.62462 58.9882 8.70502 58.9265 8.76715C58.8647 8.82928 58.7848 8.86034 58.6868 8.86034H57.4719C57.3738 8.86034 57.2921 8.82928 57.2268 8.76715C57.165 8.70137 57.1341 8.62096 57.1341 8.52594V6.48119H54.748V8.52594C54.748 8.62462 54.7153 8.70502 54.65 8.76715C54.5882 8.82928 54.5101 8.86034 54.4157 8.86034H53.1954C53.0973 8.86034 53.0174 8.82928 52.9557 8.76715C52.894 8.70502 52.8631 8.62462 52.8631 8.52594Z" fill="#3A4C79"/>
<path d="M52.8631 8.52594V3.19205C52.8631 3.09337 52.894 3.01297 52.9557 2.95085C53.0211 2.88506 53.101 2.85217 53.1954 2.85217H54.4157C54.5138 2.85217 54.5937 2.88506 54.6554 2.95085C54.7171 3.01297 54.748 3.09337 54.748 3.19205V5.15457H57.1341V3.19205C57.1341 3.09337 57.165 3.01297 57.2268 2.95085C57.2921 2.88506 57.3738 2.85217 57.4719 2.85217H58.6868C58.7848 2.85217 58.8647 2.88506 58.9265 2.95085C58.9882 3.01297 59.0191 3.09337 59.0191 3.19205V8.52594C59.0191 8.62462 58.9882 8.70502 58.9265 8.76715C58.8647 8.82928 58.7848 8.86034 58.6868 8.86034H57.4719C57.3738 8.86034 57.2921 8.82928 57.2268 8.76715C57.165 8.70137 57.1341 8.62096 57.1341 8.52594V6.48119H54.748V8.52594C54.748 8.62462 54.7153 8.70502 54.65 8.76715C54.5882 8.82928 54.5101 8.86034 54.4157 8.86034H53.1954C53.0973 8.86034 53.0174 8.82928 52.9557 8.76715C52.894 8.70502 52.8631 8.62462 52.8631 8.52594Z" fill="black" fill-opacity="0.2"/>
<path d="M62.8604 8.46564C62.381 8.12942 62.1413 7.65432 62.1413 7.04035C62.1413 6.42637 62.381 5.95493 62.8604 5.62602C63.3434 5.2971 63.9645 5.13264 64.7236 5.13264H66.5268C66.5268 4.70506 66.4378 4.40721 66.2598 4.23909C66.0819 4.07098 65.7695 3.98693 65.3228 3.98693C64.8797 3.98693 64.5674 4.09839 64.3858 4.32132C64.2078 4.5406 63.9881 4.65024 63.7266 4.65024H62.9149C62.8168 4.65024 62.7351 4.61917 62.6697 4.55704C62.608 4.49126 62.5771 4.41086 62.5771 4.31584C62.5771 3.26697 63.5668 2.74253 65.5462 2.74253C66.4106 2.74253 67.1042 2.93805 67.6272 3.3291C68.1502 3.71648 68.4117 4.31767 68.4117 5.13264V8.52594C68.4117 8.62462 68.3808 8.70502 68.3191 8.76715C68.2573 8.82928 68.1775 8.86034 68.0794 8.86034H67.028C66.9299 8.86034 66.85 8.82928 66.7883 8.76715C66.7265 8.70137 66.6956 8.62096 66.6956 8.52594V8.35601C66.1218 8.76898 65.459 8.97363 64.7072 8.96998C63.959 8.96998 63.3434 8.80187 62.8604 8.46564ZM64.8543 6.37704C64.6001 6.37704 64.3985 6.43916 64.2496 6.56342C64.1043 6.68768 64.0317 6.84848 64.0317 7.04583C64.0317 7.24318 64.108 7.40581 64.2605 7.53372C64.413 7.66163 64.6291 7.72559 64.9088 7.72559C65.4681 7.72559 66.0074 7.56113 66.5268 7.23221V6.37704H64.8543Z" fill="#3A4C79"/>
<path d="M62.8604 8.46564C62.381 8.12942 62.1413 7.65432 62.1413 7.04035C62.1413 6.42637 62.381 5.95493 62.8604 5.62602C63.3434 5.2971 63.9645 5.13264 64.7236 5.13264H66.5268C66.5268 4.70506 66.4378 4.40721 66.2598 4.23909C66.0819 4.07098 65.7695 3.98693 65.3228 3.98693C64.8797 3.98693 64.5674 4.09839 64.3858 4.32132C64.2078 4.5406 63.9881 4.65024 63.7266 4.65024H62.9149C62.8168 4.65024 62.7351 4.61917 62.6697 4.55704C62.608 4.49126 62.5771 4.41086 62.5771 4.31584C62.5771 3.26697 63.5668 2.74253 65.5462 2.74253C66.4106 2.74253 67.1042 2.93805 67.6272 3.3291C68.1502 3.71648 68.4117 4.31767 68.4117 5.13264V8.52594C68.4117 8.62462 68.3808 8.70502 68.3191 8.76715C68.2573 8.82928 68.1775 8.86034 68.0794 8.86034H67.028C66.9299 8.86034 66.85 8.82928 66.7883 8.76715C66.7265 8.70137 66.6956 8.62096 66.6956 8.52594V8.35601C66.1218 8.76898 65.459 8.97363 64.7072 8.96998C63.959 8.96998 63.3434 8.80187 62.8604 8.46564ZM64.8543 6.37704C64.6001 6.37704 64.3985 6.43916 64.2496 6.56342C64.1043 6.68768 64.0317 6.84848 64.0317 7.04583C64.0317 7.24318 64.108 7.40581 64.2605 7.53372C64.413 7.66163 64.6291 7.72559 64.9088 7.72559C65.4681 7.72559 66.0074 7.56113 66.5268 7.23221V6.37704H64.8543Z" fill="black" fill-opacity="0.2"/>
<path d="M77.9085 8.52594V3.19205C77.9085 3.09337 77.9394 3.01297 78.0011 2.95085C78.0665 2.88506 78.1464 2.85217 78.2408 2.85217H79.4611C79.5592 2.85217 79.6391 2.88506 79.7008 2.95085C79.7626 3.01297 79.7934 3.09337 79.7934 3.19205V7.53372H82.1142V3.19205C82.1142 3.09337 82.145 3.01297 82.2068 2.95085C82.2722 2.88506 82.3521 2.85217 82.4465 2.85217H83.6668C83.7649 2.85217 83.8448 2.88506 83.9065 2.95085C83.9682 3.01297 83.9991 3.09337 83.9991 3.19205V7.53372H84.533C84.631 7.53372 84.711 7.56661 84.7727 7.63239C84.8381 7.69452 84.8708 7.77492 84.8708 7.8736V8.52594C84.8708 8.62462 84.8381 8.70502 84.7727 8.76715C84.711 8.82928 84.631 8.86034 84.533 8.86034H78.2408C78.1427 8.86034 78.0628 8.82928 78.0011 8.76715C77.9394 8.70502 77.9085 8.62462 77.9085 8.52594Z" fill="#3A4C79"/>
<path d="M77.9085 8.52594V3.19205C77.9085 3.09337 77.9394 3.01297 78.0011 2.95085C78.0665 2.88506 78.1464 2.85217 78.2408 2.85217H79.4611C79.5592 2.85217 79.6391 2.88506 79.7008 2.95085C79.7626 3.01297 79.7934 3.09337 79.7934 3.19205V7.53372H82.1142V3.19205C82.1142 3.09337 82.145 3.01297 82.2068 2.95085C82.2722 2.88506 82.3521 2.85217 82.4465 2.85217H83.6668C83.7649 2.85217 83.8448 2.88506 83.9065 2.95085C83.9682 3.01297 83.9991 3.09337 83.9991 3.19205V7.53372H84.533C84.631 7.53372 84.711 7.56661 84.7727 7.63239C84.8381 7.69452 84.8708 7.77492 84.8708 7.8736V8.52594C84.8708 8.62462 84.8381 8.70502 84.7727 8.76715C84.711 8.82928 84.631 8.86034 84.533 8.86034H78.2408C78.1427 8.86034 78.0628 8.82928 78.0011 8.76715C77.9394 8.70502 77.9085 8.62462 77.9085 8.52594Z" fill="black" fill-opacity="0.2"/>
<path d="M87.7751 1.70645V1.52007C87.7751 1.32637 87.8296 1.17288 87.9385 1.05959C88.0511 0.946295 88.2054 0.889648 88.4016 0.889648H89.0771C89.2696 0.889648 89.4221 0.946295 89.5347 1.05959C89.6473 1.16923 89.7036 1.32272 89.7036 1.52007V1.70645C89.7036 1.90015 89.6473 2.05364 89.5347 2.16693C89.4258 2.28023 89.2732 2.33687 89.0771 2.33687H88.4016C88.2091 2.33687 88.0565 2.28023 87.944 2.16693C87.8314 2.05364 87.7751 1.90015 87.7751 1.70645ZM87.7969 8.52594V3.32362C87.7969 3.22494 87.8277 3.14454 87.8895 3.08241C87.9549 3.02028 88.0348 2.98922 88.1292 2.98922H89.3495C89.4475 2.98922 89.5274 3.02211 89.5892 3.08789C89.6509 3.15002 89.6818 3.2286 89.6818 3.32362V8.52594C89.6818 8.62462 89.6491 8.70502 89.5837 8.76715C89.522 8.82928 89.4439 8.86034 89.3495 8.86034H88.1292C88.0311 8.86034 87.9512 8.82928 87.8895 8.76715C87.8277 8.70502 87.7969 8.62462 87.7969 8.52594Z" fill="#3A4C79"/>
<path d="M87.7751 1.70645V1.52007C87.7751 1.32637 87.8296 1.17288 87.9385 1.05959C88.0511 0.946295 88.2054 0.889648 88.4016 0.889648H89.0771C89.2696 0.889648 89.4221 0.946295 89.5347 1.05959C89.6473 1.16923 89.7036 1.32272 89.7036 1.52007V1.70645C89.7036 1.90015 89.6473 2.05364 89.5347 2.16693C89.4258 2.28023 89.2732 2.33687 89.0771 2.33687H88.4016C88.2091 2.33687 88.0565 2.28023 87.944 2.16693C87.8314 2.05364 87.7751 1.90015 87.7751 1.70645ZM87.7969 8.52594V3.32362C87.7969 3.22494 87.8277 3.14454 87.8895 3.08241C87.9549 3.02028 88.0348 2.98922 88.1292 2.98922H89.3495C89.4475 2.98922 89.5274 3.02211 89.5892 3.08789C89.6509 3.15002 89.6818 3.2286 89.6818 3.32362V8.52594C89.6818 8.62462 89.6491 8.70502 89.5837 8.76715C89.522 8.82928 89.4439 8.86034 89.3495 8.86034H88.1292C88.0311 8.86034 87.9512 8.82928 87.8895 8.76715C87.8277 8.70502 87.7969 8.62462 87.7969 8.52594Z" fill="black" fill-opacity="0.2"/>
<path d="M93.1636 8.52594V3.19205C93.1636 3.09337 93.1945 3.01297 93.2562 2.95085C93.3216 2.88506 93.4015 2.85217 93.4959 2.85217H94.7162C94.8143 2.85217 94.8942 2.88506 94.9559 2.95085C95.0176 3.01297 95.0485 3.09337 95.0485 3.19205V5.15457H97.4346V3.19205C97.4346 3.09337 97.4655 3.01297 97.5273 2.95085C97.5926 2.88506 97.6743 2.85217 97.7724 2.85217H98.9873C99.0853 2.85217 99.1652 2.88506 99.227 2.95085C99.2887 3.01297 99.3196 3.09337 99.3196 3.19205V8.52594C99.3196 8.62462 99.2887 8.70502 99.227 8.76715C99.1652 8.82928 99.0853 8.86034 98.9873 8.86034H97.7724C97.6743 8.86034 97.5926 8.82928 97.5273 8.76715C97.4655 8.70137 97.4346 8.62096 97.4346 8.52594V6.48119H95.0485V8.52594C95.0485 8.62462 95.0158 8.70502 94.9505 8.76715C94.8887 8.82928 94.8106 8.86034 94.7162 8.86034H93.4959C93.3978 8.86034 93.3179 8.82928 93.2562 8.76715C93.1945 8.70502 93.1636 8.62462 93.1636 8.52594Z" fill="#3A4C79"/>
<path d="M93.1636 8.52594V3.19205C93.1636 3.09337 93.1945 3.01297 93.2562 2.95085C93.3216 2.88506 93.4015 2.85217 93.4959 2.85217H94.7162C94.8143 2.85217 94.8942 2.88506 94.9559 2.95085C95.0176 3.01297 95.0485 3.09337 95.0485 3.19205V5.15457H97.4346V3.19205C97.4346 3.09337 97.4655 3.01297 97.5273 2.95085C97.5926 2.88506 97.6743 2.85217 97.7724 2.85217H98.9873C99.0853 2.85217 99.1652 2.88506 99.227 2.95085C99.2887 3.01297 99.3196 3.09337 99.3196 3.19205V8.52594C99.3196 8.62462 99.2887 8.70502 99.227 8.76715C99.1652 8.82928 99.0853 8.86034 98.9873 8.86034H97.7724C97.6743 8.86034 97.5926 8.82928 97.5273 8.76715C97.4655 8.70137 97.4346 8.62096 97.4346 8.52594V6.48119H95.0485V8.52594C95.0485 8.62462 95.0158 8.70502 94.9505 8.76715C94.8887 8.82928 94.8106 8.86034 94.7162 8.86034H93.4959C93.3978 8.86034 93.3179 8.82928 93.2562 8.76715C93.1945 8.70502 93.1636 8.62462 93.1636 8.52594Z" fill="black" fill-opacity="0.2"/>
<path d="M103.161 8.46564C102.682 8.12942 102.442 7.65432 102.442 7.04035C102.442 6.42637 102.682 5.95493 103.161 5.62602C103.644 5.2971 104.265 5.13264 105.024 5.13264H106.827C106.827 4.70506 106.738 4.40721 106.56 4.23909C106.382 4.07098 106.07 3.98693 105.623 3.98693C105.18 3.98693 104.868 4.09839 104.686 4.32132C104.508 4.5406 104.289 4.65024 104.027 4.65024H103.215C103.117 4.65024 103.036 4.61917 102.97 4.55704C102.908 4.49126 102.878 4.41086 102.878 4.31584C102.878 3.26697 103.867 2.74253 105.847 2.74253C106.711 2.74253 107.405 2.93805 107.928 3.3291C108.451 3.71648 108.712 4.31767 108.712 5.13264V8.52594C108.712 8.62462 108.681 8.70502 108.62 8.76715C108.558 8.82928 108.478 8.86034 108.38 8.86034H107.328C107.23 8.86034 107.15 8.82928 107.089 8.76715C107.027 8.70137 106.996 8.62096 106.996 8.52594V8.35601C106.422 8.76898 105.76 8.97363 105.008 8.96998C104.26 8.96998 103.644 8.80187 103.161 8.46564ZM105.155 6.37704C104.901 6.37704 104.699 6.43916 104.55 6.56342C104.405 6.68768 104.332 6.84848 104.332 7.04583C104.332 7.24318 104.408 7.40581 104.561 7.53372C104.714 7.66163 104.93 7.72559 105.209 7.72559C105.769 7.72559 106.308 7.56113 106.827 7.23221V6.37704H105.155Z" fill="#3A4C79"/>
<path d="M103.161 8.46564C102.682 8.12942 102.442 7.65432 102.442 7.04035C102.442 6.42637 102.682 5.95493 103.161 5.62602C103.644 5.2971 104.265 5.13264 105.024 5.13264H106.827C106.827 4.70506 106.738 4.40721 106.56 4.23909C106.382 4.07098 106.07 3.98693 105.623 3.98693C105.18 3.98693 104.868 4.09839 104.686 4.32132C104.508 4.5406 104.289 4.65024 104.027 4.65024H103.215C103.117 4.65024 103.036 4.61917 102.97 4.55704C102.908 4.49126 102.878 4.41086 102.878 4.31584C102.878 3.26697 103.867 2.74253 105.847 2.74253C106.711 2.74253 107.405 2.93805 107.928 3.3291C108.451 3.71648 108.712 4.31767 108.712 5.13264V8.52594C108.712 8.62462 108.681 8.70502 108.62 8.76715C108.558 8.82928 108.478 8.86034 108.38 8.86034H107.328C107.23 8.86034 107.15 8.82928 107.089 8.76715C107.027 8.70137 106.996 8.62096 106.996 8.52594V8.35601C106.422 8.76898 105.76 8.97363 105.008 8.96998C104.26 8.96998 103.644 8.80187 103.161 8.46564ZM105.155 6.37704C104.901 6.37704 104.699 6.43916 104.55 6.56342C104.405 6.68768 104.332 6.84848 104.332 7.04583C104.332 7.24318 104.408 7.40581 104.561 7.53372C104.714 7.66163 104.93 7.72559 105.209 7.72559C105.769 7.72559 106.308 7.56113 106.827 7.23221V6.37704H105.155Z" fill="black" fill-opacity="0.2"/>
<path d="M0.53933 28.0173C0.179777 27.692 0 27.2498 0 26.6906C0 26.1278 0.179777 25.6838 0.53933 25.3585C0.902516 25.0333 1.35468 24.8706 1.89583 24.8706C2.44061 24.8706 2.89277 25.0333 3.25233 25.3585C3.61551 25.6838 3.7971 26.1278 3.7971 26.6906C3.7971 27.2498 3.61551 27.692 3.25233 28.0173C2.89277 28.3425 2.44061 28.5051 1.89583 28.5051C1.35468 28.5051 0.902516 28.3425 0.53933 28.0173Z" fill="#3A4C79"/>
<path d="M0.53933 28.0173C0.179777 27.692 0 27.2498 0 26.6906C0 26.1278 0.179777 25.6838 0.53933 25.3585C0.902516 25.0333 1.35468 24.8706 1.89583 24.8706C2.44061 24.8706 2.89277 25.0333 3.25233 25.3585C3.61551 25.6838 3.7971 26.1278 3.7971 26.6906C3.7971 27.2498 3.61551 27.692 3.25233 28.0173C2.89277 28.3425 2.44061 28.5051 1.89583 28.5051C1.35468 28.5051 0.902516 28.3425 0.53933 28.0173Z" fill="black" fill-opacity="0.2"/>
<path d="M16.9589 29.8701C16.9589 30.0309 16.8645 30.1113 16.6757 30.1113H15.646C15.2974 30.1113 15.0195 29.9396 14.8125 29.596L14.1206 28.4613C13.8228 27.9752 13.3906 27.7322 12.8241 27.7322V29.7769C12.8241 29.8756 12.7914 29.956 12.726 30.0182C12.6643 30.0803 12.5862 30.1113 12.4918 30.1113H11.2715C11.1734 30.1113 11.0935 30.0803 11.0318 30.0182C10.97 29.956 10.9391 29.8756 10.9391 29.7769V24.4431C10.9391 24.3444 10.97 24.264 11.0318 24.2018C11.0971 24.1361 11.177 24.1032 11.2715 24.1032H12.4918C12.5898 24.1032 12.6697 24.1361 12.7315 24.2018C12.7932 24.264 12.8241 24.3444 12.8241 24.4431V26.4823C13.456 26.4823 13.8882 26.2356 14.1206 25.7423L14.6436 24.624C14.7163 24.4668 14.8234 24.3407 14.9651 24.2457C15.1067 24.1507 15.2592 24.1032 15.4227 24.1032H16.4523C16.6339 24.1032 16.7247 24.1744 16.7247 24.317C16.7247 24.3974 16.6956 24.4997 16.6375 24.624L15.9348 26.115C15.8149 26.3635 15.6515 26.5773 15.4445 26.7564C15.2374 26.9355 15.0141 27.0506 14.7744 27.1018C15.2211 27.237 15.6079 27.5659 15.9348 28.0885L16.8609 29.596C16.9226 29.702 16.9553 29.7934 16.9589 29.8701Z" fill="#3A4C79"/>
<path d="M16.9589 29.8701C16.9589 30.0309 16.8645 30.1113 16.6757 30.1113H15.646C15.2974 30.1113 15.0195 29.9396 14.8125 29.596L14.1206 28.4613C13.8228 27.9752 13.3906 27.7322 12.8241 27.7322V29.7769C12.8241 29.8756 12.7914 29.956 12.726 30.0182C12.6643 30.0803 12.5862 30.1113 12.4918 30.1113H11.2715C11.1734 30.1113 11.0935 30.0803 11.0318 30.0182C10.97 29.956 10.9391 29.8756 10.9391 29.7769V24.4431C10.9391 24.3444 10.97 24.264 11.0318 24.2018C11.0971 24.1361 11.177 24.1032 11.2715 24.1032H12.4918C12.5898 24.1032 12.6697 24.1361 12.7315 24.2018C12.7932 24.264 12.8241 24.3444 12.8241 24.4431V26.4823C13.456 26.4823 13.8882 26.2356 14.1206 25.7423L14.6436 24.624C14.7163 24.4668 14.8234 24.3407 14.9651 24.2457C15.1067 24.1507 15.2592 24.1032 15.4227 24.1032H16.4523C16.6339 24.1032 16.7247 24.1744 16.7247 24.317C16.7247 24.3974 16.6956 24.4997 16.6375 24.624L15.9348 26.115C15.8149 26.3635 15.6515 26.5773 15.4445 26.7564C15.2374 26.9355 15.0141 27.0506 14.7744 27.1018C15.2211 27.237 15.6079 27.5659 15.9348 28.0885L16.8609 29.596C16.9226 29.702 16.9553 29.7934 16.9589 29.8701Z" fill="black" fill-opacity="0.2"/>
<path d="M19.8687 31.6243V24.4431C19.8687 24.3444 19.8996 24.264 19.9613 24.2018C20.0267 24.1361 20.1066 24.1032 20.201 24.1032H21.2524C21.3469 24.1032 21.425 24.1361 21.4867 24.2018C21.5521 24.264 21.5848 24.3444 21.5848 24.4431V24.6075C22.1586 24.1982 22.825 23.9935 23.5841 23.9935C24.3432 23.9935 24.9769 24.264 25.4854 24.8049C25.9938 25.3421 26.2481 26.1132 26.2481 27.1182C26.2481 28.1196 25.9848 28.887 25.4581 29.4206C24.9315 29.9542 24.2215 30.221 23.3281 30.221C22.8668 30.221 22.342 30.1278 21.7536 29.9414V31.6243C21.7536 31.723 21.721 31.8034 21.6556 31.8656C21.5938 31.9313 21.5158 31.9642 21.4213 31.9642H20.201C20.1066 31.9642 20.0267 31.9313 19.9613 31.8656C19.8996 31.8034 19.8687 31.723 19.8687 31.6243ZM21.7536 28.6751C22.2222 28.8249 22.6162 28.8998 22.9358 28.8998C23.4334 28.8998 23.7857 28.7573 23.9927 28.4723C24.2033 28.1872 24.3087 27.7322 24.3087 27.1073C24.3087 26.4823 24.2088 26.0292 24.009 25.7477C23.8129 25.4627 23.5169 25.3202 23.121 25.3202C22.7288 25.3202 22.273 25.4846 21.7536 25.8135V28.6751Z" fill="#3A4C79"/>
<path d="M19.8687 31.6243V24.4431C19.8687 24.3444 19.8996 24.264 19.9613 24.2018C20.0267 24.1361 20.1066 24.1032 20.201 24.1032H21.2524C21.3469 24.1032 21.425 24.1361 21.4867 24.2018C21.5521 24.264 21.5848 24.3444 21.5848 24.4431V24.6075C22.1586 24.1982 22.825 23.9935 23.5841 23.9935C24.3432 23.9935 24.9769 24.264 25.4854 24.8049C25.9938 25.3421 26.2481 26.1132 26.2481 27.1182C26.2481 28.1196 25.9848 28.887 25.4581 29.4206C24.9315 29.9542 24.2215 30.221 23.3281 30.221C22.8668 30.221 22.342 30.1278 21.7536 29.9414V31.6243C21.7536 31.723 21.721 31.8034 21.6556 31.8656C21.5938 31.9313 21.5158 31.9642 21.4213 31.9642H20.201C20.1066 31.9642 20.0267 31.9313 19.9613 31.8656C19.8996 31.8034 19.8687 31.723 19.8687 31.6243ZM21.7536 28.6751C22.2222 28.8249 22.6162 28.8998 22.9358 28.8998C23.4334 28.8998 23.7857 28.7573 23.9927 28.4723C24.2033 28.1872 24.3087 27.7322 24.3087 27.1073C24.3087 26.4823 24.2088 26.0292 24.009 25.7477C23.8129 25.4627 23.5169 25.3202 23.121 25.3202C22.7288 25.3202 22.273 25.4846 21.7536 25.8135V28.6751Z" fill="black" fill-opacity="0.2"/>
<path d="M29.7571 29.7166C29.2777 29.3804 29.038 28.9053 29.038 28.2914C29.038 27.6774 29.2777 27.2059 29.7571 26.877C30.2401 26.5481 30.8612 26.3836 31.6202 26.3836H33.4234C33.4234 25.9561 33.3345 25.6582 33.1565 25.4901C32.9785 25.322 32.6662 25.2379 32.2195 25.2379C31.7764 25.2379 31.4641 25.3494 31.2825 25.5723C31.1045 25.7916 30.8848 25.9012 30.6233 25.9012H29.8116C29.7135 25.9012 29.6318 25.8702 29.5664 25.808C29.5047 25.7423 29.4738 25.6619 29.4738 25.5668C29.4738 24.518 30.4635 23.9935 32.4428 23.9935C33.3072 23.9935 34.0009 24.1891 34.5239 24.5801C35.0469 24.9675 35.3084 25.5687 35.3084 26.3836V29.7769C35.3084 29.8756 35.2775 29.956 35.2158 30.0182C35.154 30.0803 35.0741 30.1113 34.9761 30.1113H33.9246C33.8266 30.1113 33.7467 30.0803 33.6849 30.0182C33.6232 29.9524 33.5923 29.872 33.5923 29.7769V29.607C33.0185 30.02 32.3557 30.2246 31.6039 30.221C30.8557 30.221 30.2401 30.0529 29.7571 29.7166ZM31.751 27.628C31.4967 27.628 31.2952 27.6902 31.1463 27.8144C31.001 27.9387 30.9284 28.0995 30.9284 28.2968C30.9284 28.4942 31.0046 28.6568 31.1572 28.7847C31.3097 28.9126 31.5258 28.9766 31.8054 28.9766C32.3648 28.9766 32.9041 28.8121 33.4234 28.4832V27.628H31.751Z" fill="#3A4C79"/>
<path d="M29.7571 29.7166C29.2777 29.3804 29.038 28.9053 29.038 28.2914C29.038 27.6774 29.2777 27.2059 29.7571 26.877C30.2401 26.5481 30.8612 26.3836 31.6202 26.3836H33.4234C33.4234 25.9561 33.3345 25.6582 33.1565 25.4901C32.9785 25.322 32.6662 25.2379 32.2195 25.2379C31.7764 25.2379 31.4641 25.3494 31.2825 25.5723C31.1045 25.7916 30.8848 25.9012 30.6233 25.9012H29.8116C29.7135 25.9012 29.6318 25.8702 29.5664 25.808C29.5047 25.7423 29.4738 25.6619 29.4738 25.5668C29.4738 24.518 30.4635 23.9935 32.4428 23.9935C33.3072 23.9935 34.0009 24.1891 34.5239 24.5801C35.0469 24.9675 35.3084 25.5687 35.3084 26.3836V29.7769C35.3084 29.8756 35.2775 29.956 35.2158 30.0182C35.154 30.0803 35.0741 30.1113 34.9761 30.1113H33.9246C33.8266 30.1113 33.7467 30.0803 33.6849 30.0182C33.6232 29.9524 33.5923 29.872 33.5923 29.7769V29.607C33.0185 30.02 32.3557 30.2246 31.6039 30.221C30.8557 30.221 30.2401 30.0529 29.7571 29.7166ZM31.751 27.628C31.4967 27.628 31.2952 27.6902 31.1463 27.8144C31.001 27.9387 30.9284 28.0995 30.9284 28.2968C30.9284 28.4942 31.0046 28.6568 31.1572 28.7847C31.3097 28.9126 31.5258 28.9766 31.8054 28.9766C32.3648 28.9766 32.9041 28.8121 33.4234 28.4832V27.628H31.751Z" fill="black" fill-opacity="0.2"/>
<path d="M41.6611 30.221C40.6442 30.221 39.8525 29.9579 39.2859 29.4316C38.7193 28.9053 38.4361 28.1324 38.4361 27.1127C38.4361 26.0894 38.7175 25.3147 39.2805 24.7884C39.8434 24.2585 40.6261 23.9935 41.6285 23.9935C42.6345 23.9935 43.4062 24.1543 43.9438 24.4759C44.4849 24.7975 44.7555 25.2726 44.7555 25.9012C44.7555 25.9999 44.7228 26.0803 44.6574 26.1424C44.5957 26.2046 44.5158 26.2356 44.4177 26.2356H43.606C43.359 26.2356 43.1502 26.1022 42.9795 25.8355C42.7652 25.4919 42.3857 25.3202 41.8409 25.3202C41.2998 25.3202 40.9202 25.4609 40.7023 25.7423C40.488 26.02 40.3809 26.475 40.3809 27.1073C40.3809 27.7395 40.4917 28.1963 40.7132 28.4777C40.9384 28.7591 41.327 28.8998 41.879 28.8998C42.4347 28.8998 42.8197 28.7281 43.034 28.3845C43.2047 28.1141 43.4135 27.9789 43.6605 27.9789H44.4722C44.5703 27.9789 44.6502 28.0118 44.7119 28.0776C44.7773 28.1397 44.81 28.2183 44.81 28.3133C44.81 28.9419 44.5394 29.417 43.9982 29.7386C43.4607 30.0602 42.6817 30.221 41.6611 30.221Z" fill="#3A4C79"/>
<path d="M41.6611 30.221C40.6442 30.221 39.8525 29.9579 39.2859 29.4316C38.7193 28.9053 38.4361 28.1324 38.4361 27.1127C38.4361 26.0894 38.7175 25.3147 39.2805 24.7884C39.8434 24.2585 40.6261 23.9935 41.6285 23.9935C42.6345 23.9935 43.4062 24.1543 43.9438 24.4759C44.4849 24.7975 44.7555 25.2726 44.7555 25.9012C44.7555 25.9999 44.7228 26.0803 44.6574 26.1424C44.5957 26.2046 44.5158 26.2356 44.4177 26.2356H43.606C43.359 26.2356 43.1502 26.1022 42.9795 25.8355C42.7652 25.4919 42.3857 25.3202 41.8409 25.3202C41.2998 25.3202 40.9202 25.4609 40.7023 25.7423C40.488 26.02 40.3809 26.475 40.3809 27.1073C40.3809 27.7395 40.4917 28.1963 40.7132 28.4777C40.9384 28.7591 41.327 28.8998 41.879 28.8998C42.4347 28.8998 42.8197 28.7281 43.034 28.3845C43.2047 28.1141 43.4135 27.9789 43.6605 27.9789H44.4722C44.5703 27.9789 44.6502 28.0118 44.7119 28.0776C44.7773 28.1397 44.81 28.2183 44.81 28.3133C44.81 28.9419 44.5394 29.417 43.9982 29.7386C43.4607 30.0602 42.6817 30.221 41.6611 30.221Z" fill="black" fill-opacity="0.2"/>
<path d="M47.8232 29.7769V24.4431C47.8232 24.3444 47.8541 24.264 47.9158 24.2018C47.9812 24.1361 48.0611 24.1032 48.1555 24.1032H49.2941C49.3922 24.1032 49.4721 24.1361 49.5338 24.2018C49.5992 24.264 49.6319 24.3444 49.6319 24.4431V28.0447L51.5495 24.4979C51.6076 24.3846 51.6966 24.2914 51.8165 24.2183C51.9363 24.1415 52.0525 24.1032 52.1651 24.1032H53.6905C53.7886 24.1032 53.8685 24.1361 53.9302 24.2018C53.9956 24.264 54.0283 24.3444 54.0283 24.4431V29.7769C54.0283 29.8756 53.9956 29.956 53.9302 30.0182C53.8685 30.0803 53.7886 30.1113 53.6905 30.1113H52.5519C52.4538 30.1113 52.3739 30.0803 52.3122 30.0182C52.2505 29.9524 52.2196 29.872 52.2196 29.7769V26.1808L50.302 29.7166C50.2439 29.8226 50.1549 29.9158 50.035 29.9962C49.9152 30.073 49.799 30.1113 49.6864 30.1113H48.1555C48.0575 30.1113 47.9776 30.0803 47.9158 30.0182C47.8541 29.956 47.8232 29.8756 47.8232 29.7769Z" fill="#3A4C79"/>
<path d="M47.8232 29.7769V24.4431C47.8232 24.3444 47.8541 24.264 47.9158 24.2018C47.9812 24.1361 48.0611 24.1032 48.1555 24.1032H49.2941C49.3922 24.1032 49.4721 24.1361 49.5338 24.2018C49.5992 24.264 49.6319 24.3444 49.6319 24.4431V28.0447L51.5495 24.4979C51.6076 24.3846 51.6966 24.2914 51.8165 24.2183C51.9363 24.1415 52.0525 24.1032 52.1651 24.1032H53.6905C53.7886 24.1032 53.8685 24.1361 53.9302 24.2018C53.9956 24.264 54.0283 24.3444 54.0283 24.4431V29.7769C54.0283 29.8756 53.9956 29.956 53.9302 30.0182C53.8685 30.0803 53.7886 30.1113 53.6905 30.1113H52.5519C52.4538 30.1113 52.3739 30.0803 52.3122 30.0182C52.2505 29.9524 52.2196 29.872 52.2196 29.7769V26.1808L50.302 29.7166C50.2439 29.8226 50.1549 29.9158 50.035 29.9962C49.9152 30.073 49.799 30.1113 49.6864 30.1113H48.1555C48.0575 30.1113 47.9776 30.0803 47.9158 30.0182C47.8541 29.956 47.8232 29.8756 47.8232 29.7769Z" fill="black" fill-opacity="0.2"/>
<path d="M57.4828 29.7769V24.4431C57.4828 24.3444 57.5137 24.264 57.5754 24.2018C57.6408 24.1361 57.7207 24.1032 57.8151 24.1032H61.0729C61.7666 24.1032 62.3277 24.2384 62.7563 24.5088C63.1884 24.7793 63.4045 25.1868 63.4045 25.7313C63.4045 26.2722 63.1812 26.6815 62.7345 26.9592C63.37 27.2809 63.6878 27.7578 63.6878 28.39C63.6878 29.0223 63.4826 29.4681 63.0722 29.7276C62.6618 29.9834 62.0735 30.1113 61.3071 30.1113H57.8151C57.7207 30.1113 57.6408 30.0803 57.5754 30.0182C57.5137 29.9524 57.4828 29.872 57.4828 29.7769ZM59.3677 28.8889H61.1764C61.3761 28.8889 61.5287 28.8322 61.634 28.7189C61.743 28.6056 61.7974 28.4558 61.7974 28.2694C61.7974 28.083 61.743 27.9332 61.634 27.8199C61.5287 27.7066 61.3761 27.65 61.1764 27.65H59.3677V28.8889ZM59.3677 26.4494H60.9639C61.1274 26.4494 61.2599 26.3983 61.3616 26.2959C61.4669 26.19 61.5196 26.0547 61.5196 25.8903C61.5196 25.7258 61.4669 25.5924 61.3616 25.4901C61.2599 25.3841 61.1274 25.3311 60.9639 25.3311H59.3677V26.4494Z" fill="#3A4C79"/>
<path d="M57.4828 29.7769V24.4431C57.4828 24.3444 57.5137 24.264 57.5754 24.2018C57.6408 24.1361 57.7207 24.1032 57.8151 24.1032H61.0729C61.7666 24.1032 62.3277 24.2384 62.7563 24.5088C63.1884 24.7793 63.4045 25.1868 63.4045 25.7313C63.4045 26.2722 63.1812 26.6815 62.7345 26.9592C63.37 27.2809 63.6878 27.7578 63.6878 28.39C63.6878 29.0223 63.4826 29.4681 63.0722 29.7276C62.6618 29.9834 62.0735 30.1113 61.3071 30.1113H57.8151C57.7207 30.1113 57.6408 30.0803 57.5754 30.0182C57.5137 29.9524 57.4828 29.872 57.4828 29.7769ZM59.3677 28.8889H61.1764C61.3761 28.8889 61.5287 28.8322 61.634 28.7189C61.743 28.6056 61.7974 28.4558 61.7974 28.2694C61.7974 28.083 61.743 27.9332 61.634 27.8199C61.5287 27.7066 61.3761 27.65 61.1764 27.65H59.3677V28.8889ZM59.3677 26.4494H60.9639C61.1274 26.4494 61.2599 26.3983 61.3616 26.2959C61.4669 26.19 61.5196 26.0547 61.5196 25.8903C61.5196 25.7258 61.4669 25.5924 61.3616 25.4901C61.2599 25.3841 61.1274 25.3311 60.9639 25.3311H59.3677V26.4494Z" fill="black" fill-opacity="0.2"/>
<path d="M66.761 29.7769V24.4431C66.761 24.3444 66.7919 24.264 66.8536 24.2018C66.919 24.1361 66.9989 24.1032 67.0933 24.1032H68.2319C68.33 24.1032 68.4099 24.1361 68.4716 24.2018C68.537 24.264 68.5697 24.3444 68.5697 24.4431V28.0447L70.4873 24.4979C70.5454 24.3846 70.6344 24.2914 70.7542 24.2183C70.8741 24.1415 70.9903 24.1032 71.1029 24.1032H72.6283C72.7263 24.1032 72.8062 24.1361 72.868 24.2018C72.9334 24.264 72.966 24.3444 72.966 24.4431V29.7769C72.966 29.8756 72.9334 29.956 72.868 30.0182C72.8062 30.0803 72.7263 30.1113 72.6283 30.1113H71.4897C71.3916 30.1113 71.3117 30.0803 71.25 30.0182C71.1883 29.9524 71.1574 29.872 71.1574 29.7769V26.1808L69.2398 29.7166C69.1817 29.8226 69.0927 29.9158 68.9728 29.9962C68.853 30.073 68.7367 30.1113 68.6242 30.1113H67.0933C66.9953 30.1113 66.9154 30.0803 66.8536 30.0182C66.7919 29.956 66.761 29.8756 66.761 29.7769Z" fill="#3A4C79"/>
<path d="M66.761 29.7769V24.4431C66.761 24.3444 66.7919 24.264 66.8536 24.2018C66.919 24.1361 66.9989 24.1032 67.0933 24.1032H68.2319C68.33 24.1032 68.4099 24.1361 68.4716 24.2018C68.537 24.264 68.5697 24.3444 68.5697 24.4431V28.0447L70.4873 24.4979C70.5454 24.3846 70.6344 24.2914 70.7542 24.2183C70.8741 24.1415 70.9903 24.1032 71.1029 24.1032H72.6283C72.7263 24.1032 72.8062 24.1361 72.868 24.2018C72.9334 24.264 72.966 24.3444 72.966 24.4431V29.7769C72.966 29.8756 72.9334 29.956 72.868 30.0182C72.8062 30.0803 72.7263 30.1113 72.6283 30.1113H71.4897C71.3916 30.1113 71.3117 30.0803 71.25 30.0182C71.1883 29.9524 71.1574 29.872 71.1574 29.7769V26.1808L69.2398 29.7166C69.1817 29.8226 69.0927 29.9158 68.9728 29.9962C68.853 30.073 68.7367 30.1113 68.6242 30.1113H67.0933C66.9953 30.1113 66.9154 30.0803 66.8536 30.0182C66.7919 29.956 66.761 29.8756 66.761 29.7769Z" fill="black" fill-opacity="0.2"/>
<path d="M76.4206 29.7769V24.4431C76.4206 24.3444 76.4515 24.264 76.5132 24.2018C76.5786 24.1361 76.6585 24.1032 76.7529 24.1032H77.8915C77.9896 24.1032 78.0695 24.1361 78.1312 24.2018C78.1966 24.264 78.2293 24.3444 78.2293 24.4431V28.0447L80.1469 24.4979C80.205 24.3846 80.294 24.2914 80.4138 24.2183C80.5337 24.1415 80.6499 24.1032 80.7625 24.1032H82.2879C82.3859 24.1032 82.4658 24.1361 82.5276 24.2018C82.5929 24.264 82.6256 24.3444 82.6256 24.4431V29.7769C82.6256 29.8756 82.5929 29.956 82.5276 30.0182C82.4658 30.0803 82.3859 30.1113 82.2879 30.1113H81.1493C81.0512 30.1113 80.9713 30.0803 80.9096 30.0182C80.8478 29.9524 80.817 29.872 80.817 29.7769V26.1808L78.8993 29.7166C78.8412 29.8226 78.7522 29.9158 78.6324 29.9962C78.5125 30.073 78.3963 30.1113 78.2837 30.1113H76.7529C76.6548 30.1113 76.5749 30.0803 76.5132 30.0182C76.4515 29.956 76.4206 29.8756 76.4206 29.7769ZM77.6899 22.0255C77.6899 21.8391 77.7916 21.746 77.995 21.746H78.4036C78.5815 21.746 78.7087 21.8391 78.7849 22.0255C78.9048 22.3252 79.1499 22.475 79.5204 22.475C79.8945 22.475 80.1396 22.3252 80.2558 22.0255C80.3285 21.8391 80.4556 21.746 80.6372 21.746H81.0512C81.251 21.746 81.3508 21.8391 81.3508 22.0255C81.3508 22.4531 81.182 22.804 80.8442 23.0781C80.5064 23.3522 80.0652 23.4892 79.5204 23.4892C78.9792 23.4892 78.538 23.3522 78.1966 23.0781C77.8588 22.804 77.6899 22.4531 77.6899 22.0255Z" fill="#3A4C79"/>
<path d="M76.4206 29.7769V24.4431C76.4206 24.3444 76.4515 24.264 76.5132 24.2018C76.5786 24.1361 76.6585 24.1032 76.7529 24.1032H77.8915C77.9896 24.1032 78.0695 24.1361 78.1312 24.2018C78.1966 24.264 78.2293 24.3444 78.2293 24.4431V28.0447L80.1469 24.4979C80.205 24.3846 80.294 24.2914 80.4138 24.2183C80.5337 24.1415 80.6499 24.1032 80.7625 24.1032H82.2879C82.3859 24.1032 82.4658 24.1361 82.5276 24.2018C82.5929 24.264 82.6256 24.3444 82.6256 24.4431V29.7769C82.6256 29.8756 82.5929 29.956 82.5276 30.0182C82.4658 30.0803 82.3859 30.1113 82.2879 30.1113H81.1493C81.0512 30.1113 80.9713 30.0803 80.9096 30.0182C80.8478 29.9524 80.817 29.872 80.817 29.7769V26.1808L78.8993 29.7166C78.8412 29.8226 78.7522 29.9158 78.6324 29.9962C78.5125 30.073 78.3963 30.1113 78.2837 30.1113H76.7529C76.6548 30.1113 76.5749 30.0803 76.5132 30.0182C76.4515 29.956 76.4206 29.8756 76.4206 29.7769ZM77.6899 22.0255C77.6899 21.8391 77.7916 21.746 77.995 21.746H78.4036C78.5815 21.746 78.7087 21.8391 78.7849 22.0255C78.9048 22.3252 79.1499 22.475 79.5204 22.475C79.8945 22.475 80.1396 22.3252 80.2558 22.0255C80.3285 21.8391 80.4556 21.746 80.6372 21.746H81.0512C81.251 21.746 81.3508 21.8391 81.3508 22.0255C81.3508 22.4531 81.182 22.804 80.8442 23.0781C80.5064 23.3522 80.0652 23.4892 79.5204 23.4892C78.9792 23.4892 78.538 23.3522 78.1966 23.0781C77.8588 22.804 77.6899 22.4531 77.6899 22.0255Z" fill="black" fill-opacity="0.2"/>
<path d="M91.5504 29.7769V29.1246C91.5504 29.0259 91.5813 28.9455 91.643 28.8834C91.7084 28.8176 91.7901 28.7847 91.8882 28.7847H92.3131L93.0594 25.7642C93.3354 24.6568 94.247 24.1032 95.7942 24.1032H98.2675C98.3656 24.1032 98.4455 24.1361 98.5072 24.2018C98.5726 24.264 98.6053 24.3444 98.6053 24.4431V29.7769C98.6053 29.872 98.5726 29.9524 98.5072 30.0182C98.4455 30.0803 98.3656 30.1113 98.2675 30.1113H91.8882C91.7901 30.1113 91.7084 30.0803 91.643 30.0182C91.5813 29.9524 91.5504 29.872 91.5504 29.7769ZM94.0945 28.7847H96.7203V25.4298H95.7343C95.2077 25.4298 94.8735 25.6984 94.7319 26.2356L94.0945 28.7847Z" fill="#3A4C79"/>
<path d="M91.5504 29.7769V29.1246C91.5504 29.0259 91.5813 28.9455 91.643 28.8834C91.7084 28.8176 91.7901 28.7847 91.8882 28.7847H92.3131L93.0594 25.7642C93.3354 24.6568 94.247 24.1032 95.7942 24.1032H98.2675C98.3656 24.1032 98.4455 24.1361 98.5072 24.2018C98.5726 24.264 98.6053 24.3444 98.6053 24.4431V29.7769C98.6053 29.872 98.5726 29.9524 98.5072 30.0182C98.4455 30.0803 98.3656 30.1113 98.2675 30.1113H91.8882C91.7901 30.1113 91.7084 30.0803 91.643 30.0182C91.5813 29.9524 91.5504 29.872 91.5504 29.7769ZM94.0945 28.7847H96.7203V25.4298H95.7343C95.2077 25.4298 94.8735 25.6984 94.7319 26.2356L94.0945 28.7847Z" fill="black" fill-opacity="0.2"/>
<path d="M102.065 29.7769V24.4431C102.065 24.3444 102.096 24.264 102.158 24.2018C102.223 24.1361 102.303 24.1032 102.398 24.1032H103.536C103.634 24.1032 103.714 24.1361 103.776 24.2018C103.841 24.264 103.874 24.3444 103.874 24.4431V28.0447L105.792 24.4979C105.85 24.3846 105.939 24.2914 106.058 24.2183C106.178 24.1415 106.295 24.1032 106.407 24.1032H107.933C108.031 24.1032 108.11 24.1361 108.172 24.2018C108.238 24.264 108.27 24.3444 108.27 24.4431V29.7769C108.27 29.8756 108.238 29.956 108.172 30.0182C108.11 30.0803 108.031 30.1113 107.933 30.1113H106.794C106.696 30.1113 106.616 30.0803 106.554 30.0182C106.492 29.9524 106.462 29.872 106.462 29.7769V26.1808L104.544 29.7166C104.486 29.8226 104.397 29.9158 104.277 29.9962C104.157 30.073 104.041 30.1113 103.928 30.1113H102.398C102.3 30.1113 102.22 30.0803 102.158 30.0182C102.096 29.956 102.065 29.8756 102.065 29.7769Z" fill="#3A4C79"/>
<path d="M102.065 29.7769V24.4431C102.065 24.3444 102.096 24.264 102.158 24.2018C102.223 24.1361 102.303 24.1032 102.398 24.1032H103.536C103.634 24.1032 103.714 24.1361 103.776 24.2018C103.841 24.264 103.874 24.3444 103.874 24.4431V28.0447L105.792 24.4979C105.85 24.3846 105.939 24.2914 106.058 24.2183C106.178 24.1415 106.295 24.1032 106.407 24.1032H107.933C108.031 24.1032 108.11 24.1361 108.172 24.2018C108.238 24.264 108.27 24.3444 108.27 24.4431V29.7769C108.27 29.8756 108.238 29.956 108.172 30.0182C108.11 30.0803 108.031 30.1113 107.933 30.1113H106.794C106.696 30.1113 106.616 30.0803 106.554 30.0182C106.492 29.9524 106.462 29.872 106.462 29.7769V26.1808L104.544 29.7166C104.486 29.8226 104.397 29.9158 104.277 29.9962C104.157 30.073 104.041 30.1113 103.928 30.1113H102.398C102.3 30.1113 102.22 30.0803 102.158 30.0182C102.096 29.956 102.065 29.8756 102.065 29.7769Z" fill="black" fill-opacity="0.2"/>
<path d="M111.278 28.5709C111.278 28.4723 111.309 28.3919 111.371 28.3297C111.436 28.2676 111.516 28.2365 111.61 28.2365H112.428C112.675 28.2365 112.867 28.3608 113.005 28.6093C113.147 28.8542 113.415 28.9766 113.811 28.9766H114.917C115.444 28.9766 115.707 28.7591 115.707 28.3242C115.707 27.8893 115.444 27.6737 114.917 27.6774H113.566C113.468 27.6774 113.386 27.6463 113.321 27.5842C113.259 27.5184 113.228 27.4362 113.228 27.3375V26.7674C113.228 26.6687 113.259 26.5883 113.321 26.5262C113.386 26.4604 113.468 26.4275 113.566 26.4275H114.814C115.053 26.4275 115.233 26.3745 115.353 26.2685C115.477 26.1589 115.538 26.0145 115.538 25.8355C115.538 25.6564 115.477 25.512 115.353 25.4024C115.233 25.2927 115.053 25.2379 114.814 25.2379H113.811C113.684 25.2379 113.553 25.2708 113.419 25.3366C113.285 25.3987 113.185 25.4901 113.119 25.6107C112.978 25.8592 112.784 25.9816 112.537 25.978H111.725C111.627 25.978 111.545 25.9469 111.48 25.8848C111.418 25.8227 111.387 25.7423 111.387 25.6436C111.387 25.1502 111.625 24.7519 112.101 24.4485C112.58 24.1452 113.158 23.9935 113.833 23.9935H114.928C115.694 23.9935 116.301 24.1361 116.748 24.4211C117.198 24.7025 117.423 25.1319 117.423 25.7094C117.423 26.2868 117.164 26.7034 116.644 26.9592C117.276 27.2809 117.592 27.7888 117.592 28.4832C117.592 29.0899 117.378 29.5321 116.949 29.8098C116.524 30.0839 115.891 30.221 115.048 30.221H113.833C113.103 30.221 112.495 30.0711 112.008 29.7715C111.521 29.4718 111.278 29.0716 111.278 28.5709Z" fill="#3A4C79"/>
<path d="M111.278 28.5709C111.278 28.4723 111.309 28.3919 111.371 28.3297C111.436 28.2676 111.516 28.2365 111.61 28.2365H112.428C112.675 28.2365 112.867 28.3608 113.005 28.6093C113.147 28.8542 113.415 28.9766 113.811 28.9766H114.917C115.444 28.9766 115.707 28.7591 115.707 28.3242C115.707 27.8893 115.444 27.6737 114.917 27.6774H113.566C113.468 27.6774 113.386 27.6463 113.321 27.5842C113.259 27.5184 113.228 27.4362 113.228 27.3375V26.7674C113.228 26.6687 113.259 26.5883 113.321 26.5262C113.386 26.4604 113.468 26.4275 113.566 26.4275H114.814C115.053 26.4275 115.233 26.3745 115.353 26.2685C115.477 26.1589 115.538 26.0145 115.538 25.8355C115.538 25.6564 115.477 25.512 115.353 25.4024C115.233 25.2927 115.053 25.2379 114.814 25.2379H113.811C113.684 25.2379 113.553 25.2708 113.419 25.3366C113.285 25.3987 113.185 25.4901 113.119 25.6107C112.978 25.8592 112.784 25.9816 112.537 25.978H111.725C111.627 25.978 111.545 25.9469 111.48 25.8848C111.418 25.8227 111.387 25.7423 111.387 25.6436C111.387 25.1502 111.625 24.7519 112.101 24.4485C112.58 24.1452 113.158 23.9935 113.833 23.9935H114.928C115.694 23.9935 116.301 24.1361 116.748 24.4211C117.198 24.7025 117.423 25.1319 117.423 25.7094C117.423 26.2868 117.164 26.7034 116.644 26.9592C117.276 27.2809 117.592 27.7888 117.592 28.4832C117.592 29.0899 117.378 29.5321 116.949 29.8098C116.524 30.0839 115.891 30.221 115.048 30.221H113.833C113.103 30.221 112.495 30.0711 112.008 29.7715C111.521 29.4718 111.278 29.0716 111.278 28.5709Z" fill="black" fill-opacity="0.2"/>
<path d="M121.047 29.7166C120.567 29.3804 120.328 28.9053 120.328 28.2914C120.328 27.6774 120.567 27.2059 121.047 26.877C121.53 26.5481 122.151 26.3836 122.91 26.3836H124.713C124.713 25.9561 124.624 25.6582 124.446 25.4901C124.268 25.322 123.956 25.2379 123.509 25.2379C123.066 25.2379 122.754 25.3494 122.572 25.5723C122.394 25.7916 122.174 25.9012 121.913 25.9012H121.101C121.003 25.9012 120.921 25.8702 120.856 25.808C120.794 25.7423 120.763 25.6619 120.763 25.5668C120.763 24.518 121.753 23.9935 123.732 23.9935C124.597 23.9935 125.29 24.1891 125.813 24.5801C126.336 24.9675 126.598 25.5687 126.598 26.3836V29.7769C126.598 29.8756 126.567 29.956 126.505 30.0182C126.444 30.0803 126.364 30.1113 126.266 30.1113H125.214C125.116 30.1113 125.036 30.0803 124.974 30.0182C124.913 29.9524 124.882 29.872 124.882 29.7769V29.607C124.308 30.02 123.645 30.2246 122.893 30.221C122.145 30.221 121.53 30.0529 121.047 29.7166ZM123.041 27.628C122.786 27.628 122.585 27.6902 122.436 27.8144C122.291 27.9387 122.218 28.0995 122.218 28.2968C122.218 28.4942 122.294 28.6568 122.447 28.7847C122.599 28.9126 122.815 28.9766 123.095 28.9766C123.654 28.9766 124.194 28.8121 124.713 28.4832V27.628H123.041Z" fill="#3A4C79"/>
<path d="M121.047 29.7166C120.567 29.3804 120.328 28.9053 120.328 28.2914C120.328 27.6774 120.567 27.2059 121.047 26.877C121.53 26.5481 122.151 26.3836 122.91 26.3836H124.713C124.713 25.9561 124.624 25.6582 124.446 25.4901C124.268 25.322 123.956 25.2379 123.509 25.2379C123.066 25.2379 122.754 25.3494 122.572 25.5723C122.394 25.7916 122.174 25.9012 121.913 25.9012H121.101C121.003 25.9012 120.921 25.8702 120.856 25.808C120.794 25.7423 120.763 25.6619 120.763 25.5668C120.763 24.518 121.753 23.9935 123.732 23.9935C124.597 23.9935 125.29 24.1891 125.813 24.5801C126.336 24.9675 126.598 25.5687 126.598 26.3836V29.7769C126.598 29.8756 126.567 29.956 126.505 30.0182C126.444 30.0803 126.364 30.1113 126.266 30.1113H125.214C125.116 30.1113 125.036 30.0803 124.974 30.0182C124.913 29.9524 124.882 29.872 124.882 29.7769V29.607C124.308 30.02 123.645 30.2246 122.893 30.221C122.145 30.221 121.53 30.0529 121.047 29.7166ZM123.041 27.628C122.786 27.628 122.585 27.6902 122.436 27.8144C122.291 27.9387 122.218 28.0995 122.218 28.2968C122.218 28.4942 122.294 28.6568 122.447 28.7847C122.599 28.9126 122.815 28.9766 123.095 28.9766C123.654 28.9766 124.194 28.8121 124.713 28.4832V27.628H123.041Z" fill="black" fill-opacity="0.2"/>
<path d="M130.063 29.7769V24.4431C130.063 24.3444 130.094 24.264 130.156 24.2018C130.221 24.1361 130.301 24.1032 130.396 24.1032H131.534C131.632 24.1032 131.712 24.1361 131.774 24.2018C131.839 24.264 131.872 24.3444 131.872 24.4431V28.0447L133.79 24.4979C133.848 24.3846 133.937 24.2914 134.057 24.2183C134.176 24.1415 134.293 24.1032 134.405 24.1032H135.931C136.029 24.1032 136.109 24.1361 136.17 24.2018C136.236 24.264 136.268 24.3444 136.268 24.4431V29.7769C136.268 29.8756 136.236 29.956 136.17 30.0182C136.109 30.0803 136.029 30.1113 135.931 30.1113H134.792C134.694 30.1113 134.614 30.0803 134.552 30.0182C134.491 29.9524 134.46 29.872 134.46 29.7769V26.1808L132.542 29.7166C132.484 29.8226 132.395 29.9158 132.275 29.9962C132.155 30.073 132.039 30.1113 131.926 30.1113H130.396C130.298 30.1113 130.218 30.0803 130.156 30.0182C130.094 29.956 130.063 29.8756 130.063 29.7769ZM131.333 22.0255C131.333 21.8391 131.434 21.746 131.638 21.746H132.046C132.224 21.746 132.351 21.8391 132.428 22.0255C132.548 22.3252 132.793 22.475 133.163 22.475C133.537 22.475 133.782 22.3252 133.899 22.0255C133.971 21.8391 134.098 21.746 134.28 21.746H134.694C134.894 21.746 134.994 21.8391 134.994 22.0255C134.994 22.4531 134.825 22.804 134.487 23.0781C134.149 23.3522 133.708 23.4892 133.163 23.4892C132.622 23.4892 132.181 23.3522 131.839 23.0781C131.502 22.804 131.333 22.4531 131.333 22.0255Z" fill="#3A4C79"/>
<path d="M130.063 29.7769V24.4431C130.063 24.3444 130.094 24.264 130.156 24.2018C130.221 24.1361 130.301 24.1032 130.396 24.1032H131.534C131.632 24.1032 131.712 24.1361 131.774 24.2018C131.839 24.264 131.872 24.3444 131.872 24.4431V28.0447L133.79 24.4979C133.848 24.3846 133.937 24.2914 134.057 24.2183C134.176 24.1415 134.293 24.1032 134.405 24.1032H135.931C136.029 24.1032 136.109 24.1361 136.17 24.2018C136.236 24.264 136.268 24.3444 136.268 24.4431V29.7769C136.268 29.8756 136.236 29.956 136.17 30.0182C136.109 30.0803 136.029 30.1113 135.931 30.1113H134.792C134.694 30.1113 134.614 30.0803 134.552 30.0182C134.491 29.9524 134.46 29.872 134.46 29.7769V26.1808L132.542 29.7166C132.484 29.8226 132.395 29.9158 132.275 29.9962C132.155 30.073 132.039 30.1113 131.926 30.1113H130.396C130.298 30.1113 130.218 30.0803 130.156 30.0182C130.094 29.956 130.063 29.8756 130.063 29.7769ZM131.333 22.0255C131.333 21.8391 131.434 21.746 131.638 21.746H132.046C132.224 21.746 132.351 21.8391 132.428 22.0255C132.548 22.3252 132.793 22.475 133.163 22.475C133.537 22.475 133.782 22.3252 133.899 22.0255C133.971 21.8391 134.098 21.746 134.28 21.746H134.694C134.894 21.746 134.994 21.8391 134.994 22.0255C134.994 22.4531 134.825 22.804 134.487 23.0781C134.149 23.3522 133.708 23.4892 133.163 23.4892C132.622 23.4892 132.181 23.3522 131.839 23.0781C131.502 22.804 131.333 22.4531 131.333 22.0255Z" fill="black" fill-opacity="0.2"/>
<path d="M139.723 29.7769V24.4431C139.723 24.3444 139.754 24.264 139.816 24.2018C139.881 24.1361 139.961 24.1032 140.055 24.1032H141.276C141.374 24.1032 141.454 24.1361 141.515 24.2018C141.577 24.264 141.608 24.3444 141.608 24.4431V26.4056H143.994V24.4431C143.994 24.3444 144.025 24.264 144.087 24.2018C144.152 24.1361 144.234 24.1032 144.332 24.1032H145.547C145.645 24.1032 145.725 24.1361 145.786 24.2018C145.848 24.264 145.879 24.3444 145.879 24.4431V29.7769C145.879 29.8756 145.848 29.956 145.786 30.0182C145.725 30.0803 145.645 30.1113 145.547 30.1113H144.332C144.234 30.1113 144.152 30.0803 144.087 30.0182C144.025 29.9524 143.994 29.872 143.994 29.7769V27.7322H141.608V29.7769C141.608 29.8756 141.575 29.956 141.51 30.0182C141.448 30.0803 141.37 30.1113 141.276 30.1113H140.055C139.957 30.1113 139.877 30.0803 139.816 30.0182C139.754 29.956 139.723 29.8756 139.723 29.7769Z" fill="#3A4C79"/>
<path d="M139.723 29.7769V24.4431C139.723 24.3444 139.754 24.264 139.816 24.2018C139.881 24.1361 139.961 24.1032 140.055 24.1032H141.276C141.374 24.1032 141.454 24.1361 141.515 24.2018C141.577 24.264 141.608 24.3444 141.608 24.4431V26.4056H143.994V24.4431C143.994 24.3444 144.025 24.264 144.087 24.2018C144.152 24.1361 144.234 24.1032 144.332 24.1032H145.547C145.645 24.1032 145.725 24.1361 145.786 24.2018C145.848 24.264 145.879 24.3444 145.879 24.4431V29.7769C145.879 29.8756 145.848 29.956 145.786 30.0182C145.725 30.0803 145.645 30.1113 145.547 30.1113H144.332C144.234 30.1113 144.152 30.0803 144.087 30.0182C144.025 29.9524 143.994 29.872 143.994 29.7769V27.7322H141.608V29.7769C141.608 29.8756 141.575 29.956 141.51 30.0182C141.448 30.0803 141.37 30.1113 141.276 30.1113H140.055C139.957 30.1113 139.877 30.0803 139.816 30.0182C139.754 29.956 139.723 29.8756 139.723 29.7769Z" fill="black" fill-opacity="0.2"/>
<path d="M0.53933 49.2683C0.179777 48.943 0 48.5008 0 47.9416C0 47.3788 0.179777 46.9348 0.53933 46.6095C0.902516 46.2843 1.35468 46.1216 1.89583 46.1216C2.44061 46.1216 2.89277 46.2843 3.25233 46.6095C3.61551 46.9348 3.7971 47.3788 3.7971 47.9416C3.7971 48.5008 3.61551 48.943 3.25233 49.2683C2.89277 49.5935 2.44061 49.7561 1.89583 49.7561C1.35468 49.7561 0.902516 49.5935 0.53933 49.2683Z" fill="#3A4C79"/>
<path d="M0.53933 49.2683C0.179777 48.943 0 48.5008 0 47.9416C0 47.3788 0.179777 46.9348 0.53933 46.6095C0.902516 46.2843 1.35468 46.1216 1.89583 46.1216C2.44061 46.1216 2.89277 46.2843 3.25233 46.6095C3.61551 46.9348 3.7971 47.3788 3.7971 47.9416C3.7971 48.5008 3.61551 48.943 3.25233 49.2683C2.89277 49.5935 2.44061 49.7561 1.89583 49.7561C1.35468 49.7561 0.902516 49.5935 0.53933 49.2683Z" fill="black" fill-opacity="0.2"/>
<path d="M16.9589 51.1211C16.9589 51.2819 16.8645 51.3623 16.6757 51.3623H15.646C15.2974 51.3623 15.0195 51.1906 14.8125 50.847L14.1206 49.7123C13.8228 49.2262 13.3906 48.9832 12.8241 48.9832V51.028C12.8241 51.1266 12.7914 51.207 12.726 51.2692C12.6643 51.3313 12.5862 51.3623 12.4918 51.3623H11.2715C11.1734 51.3623 11.0935 51.3313 11.0318 51.2692C10.97 51.207 10.9391 51.1266 10.9391 51.028V45.6941C10.9391 45.5954 10.97 45.515 11.0318 45.4529C11.0971 45.3871 11.177 45.3542 11.2715 45.3542H12.4918C12.5898 45.3542 12.6697 45.3871 12.7315 45.4529C12.7932 45.515 12.8241 45.5954 12.8241 45.6941V47.7333C13.456 47.7333 13.8882 47.4866 14.1206 46.9933L14.6436 45.875C14.7163 45.7178 14.8234 45.5917 14.9651 45.4967C15.1067 45.4017 15.2592 45.3542 15.4227 45.3542H16.4523C16.6339 45.3542 16.7247 45.4254 16.7247 45.568C16.7247 45.6484 16.6956 45.7507 16.6375 45.875L15.9348 47.366C15.8149 47.6146 15.6515 47.8283 15.4445 48.0074C15.2374 48.1865 15.0141 48.3016 14.7744 48.3528C15.2211 48.488 15.6079 48.8169 15.9348 49.3395L16.8609 50.847C16.9226 50.953 16.9553 51.0444 16.9589 51.1211Z" fill="#3A4C79"/>
<path d="M16.9589 51.1211C16.9589 51.2819 16.8645 51.3623 16.6757 51.3623H15.646C15.2974 51.3623 15.0195 51.1906 14.8125 50.847L14.1206 49.7123C13.8228 49.2262 13.3906 48.9832 12.8241 48.9832V51.028C12.8241 51.1266 12.7914 51.207 12.726 51.2692C12.6643 51.3313 12.5862 51.3623 12.4918 51.3623H11.2715C11.1734 51.3623 11.0935 51.3313 11.0318 51.2692C10.97 51.207 10.9391 51.1266 10.9391 51.028V45.6941C10.9391 45.5954 10.97 45.515 11.0318 45.4529C11.0971 45.3871 11.177 45.3542 11.2715 45.3542H12.4918C12.5898 45.3542 12.6697 45.3871 12.7315 45.4529C12.7932 45.515 12.8241 45.5954 12.8241 45.6941V47.7333C13.456 47.7333 13.8882 47.4866 14.1206 46.9933L14.6436 45.875C14.7163 45.7178 14.8234 45.5917 14.9651 45.4967C15.1067 45.4017 15.2592 45.3542 15.4227 45.3542H16.4523C16.6339 45.3542 16.7247 45.4254 16.7247 45.568C16.7247 45.6484 16.6956 45.7507 16.6375 45.875L15.9348 47.366C15.8149 47.6146 15.6515 47.8283 15.4445 48.0074C15.2374 48.1865 15.0141 48.3016 14.7744 48.3528C15.2211 48.488 15.6079 48.8169 15.9348 49.3395L16.8609 50.847C16.9226 50.953 16.9553 51.0444 16.9589 51.1211Z" fill="black" fill-opacity="0.2"/>
<path d="M20.2718 50.6826C19.7053 50.1563 19.422 49.3816 19.422 48.3583C19.422 47.3313 19.7053 46.5565 20.2718 46.0339C20.8384 45.5077 21.6519 45.2445 22.7125 45.2445C23.7766 45.2445 24.5919 45.5077 25.1585 46.0339C25.7251 46.5565 26.0084 47.3313 26.0084 48.3583C26.0084 49.3816 25.7251 50.1563 25.1585 50.6826C24.5919 51.2089 23.7766 51.472 22.7125 51.472C21.6519 51.472 20.8384 51.2089 20.2718 50.6826ZM21.6501 46.933C21.425 47.229 21.3124 47.7023 21.3124 48.3528C21.3124 49.0033 21.425 49.4784 21.6501 49.7781C21.8753 50.0778 22.2294 50.2276 22.7125 50.2276C23.1991 50.2276 23.555 50.0778 23.7802 49.7781C24.009 49.4784 24.1234 49.0033 24.1234 48.3528C24.1234 47.7023 24.009 47.229 23.7802 46.933C23.555 46.6369 23.1991 46.4889 22.7125 46.4889C22.2294 46.4889 21.8753 46.6369 21.6501 46.933Z" fill="#3A4C79"/>
<path d="M20.2718 50.6826C19.7053 50.1563 19.422 49.3816 19.422 48.3583C19.422 47.3313 19.7053 46.5565 20.2718 46.0339C20.8384 45.5077 21.6519 45.2445 22.7125 45.2445C23.7766 45.2445 24.5919 45.5077 25.1585 46.0339C25.7251 46.5565 26.0084 47.3313 26.0084 48.3583C26.0084 49.3816 25.7251 50.1563 25.1585 50.6826C24.5919 51.2089 23.7766 51.472 22.7125 51.472C21.6519 51.472 20.8384 51.2089 20.2718 50.6826ZM21.6501 46.933C21.425 47.229 21.3124 47.7023 21.3124 48.3528C21.3124 49.0033 21.425 49.4784 21.6501 49.7781C21.8753 50.0778 22.2294 50.2276 22.7125 50.2276C23.1991 50.2276 23.555 50.0778 23.7802 49.7781C24.009 49.4784 24.1234 49.0033 24.1234 48.3528C24.1234 47.7023 24.009 47.229 23.7802 46.933C23.555 46.6369 23.1991 46.4889 22.7125 46.4889C22.2294 46.4889 21.8753 46.6369 21.6501 46.933Z" fill="black" fill-opacity="0.2"/>
<path d="M29.136 52.8753V45.6941C29.136 45.5954 29.1669 45.515 29.2286 45.4529C29.294 45.3871 29.3739 45.3542 29.4684 45.3542H30.5198C30.6142 45.3542 30.6923 45.3871 30.754 45.4529C30.8194 45.515 30.8521 45.5954 30.8521 45.6941V45.8585C31.4259 45.4492 32.0924 45.2445 32.8514 45.2445C33.6105 45.2445 34.2442 45.515 34.7527 46.0559C35.2612 46.5931 35.5154 47.3642 35.5154 48.3692C35.5154 49.3706 35.2521 50.1381 34.7255 50.6716C34.1988 51.2052 33.4888 51.472 32.5954 51.472C32.1341 51.472 31.6093 51.3788 31.021 51.1924V52.8753C31.021 52.974 30.9883 53.0544 30.9229 53.1166C30.8612 53.1823 30.7831 53.2152 30.6887 53.2152H29.4684C29.3739 53.2152 29.294 53.1823 29.2286 53.1166C29.1669 53.0544 29.136 52.974 29.136 52.8753ZM31.021 49.9261C31.4895 50.0759 31.8835 50.1508 32.2031 50.1508C32.7007 50.1508 33.053 50.0083 33.26 49.7233C33.4707 49.4382 33.576 48.9832 33.576 48.3583C33.576 47.7333 33.4761 47.2802 33.2763 46.9988C33.0802 46.7137 32.7842 46.5712 32.3884 46.5712C31.9961 46.5712 31.5403 46.7356 31.021 47.0645V49.9261Z" fill="#3A4C79"/>
<path d="M29.136 52.8753V45.6941C29.136 45.5954 29.1669 45.515 29.2286 45.4529C29.294 45.3871 29.3739 45.3542 29.4684 45.3542H30.5198C30.6142 45.3542 30.6923 45.3871 30.754 45.4529C30.8194 45.515 30.8521 45.5954 30.8521 45.6941V45.8585C31.4259 45.4492 32.0924 45.2445 32.8514 45.2445C33.6105 45.2445 34.2442 45.515 34.7527 46.0559C35.2612 46.5931 35.5154 47.3642 35.5154 48.3692C35.5154 49.3706 35.2521 50.1381 34.7255 50.6716C34.1988 51.2052 33.4888 51.472 32.5954 51.472C32.1341 51.472 31.6093 51.3788 31.021 51.1924V52.8753C31.021 52.974 30.9883 53.0544 30.9229 53.1166C30.8612 53.1823 30.7831 53.2152 30.6887 53.2152H29.4684C29.3739 53.2152 29.294 53.1823 29.2286 53.1166C29.1669 53.0544 29.136 52.974 29.136 52.8753ZM31.021 49.9261C31.4895 50.0759 31.8835 50.1508 32.2031 50.1508C32.7007 50.1508 33.053 50.0083 33.26 49.7233C33.4707 49.4382 33.576 48.9832 33.576 48.3583C33.576 47.7333 33.4761 47.2802 33.2763 46.9988C33.0802 46.7137 32.7842 46.5712 32.3884 46.5712C31.9961 46.5712 31.5403 46.7356 31.021 47.0645V49.9261Z" fill="black" fill-opacity="0.2"/>
<path d="M38.6431 51.028V45.6941C38.6431 45.5954 38.6739 45.515 38.7357 45.4529C38.8011 45.3871 38.881 45.3542 38.9754 45.3542H40.114C40.212 45.3542 40.2919 45.3871 40.3537 45.4529C40.419 45.515 40.4517 45.5954 40.4517 45.6941V49.2957L42.3694 45.7489C42.4275 45.6356 42.5164 45.5424 42.6363 45.4693C42.7561 45.3926 42.8724 45.3542 42.9849 45.3542H44.5103C44.6084 45.3542 44.6883 45.3871 44.75 45.4529C44.8154 45.515 44.8481 45.5954 44.8481 45.6941V51.028C44.8481 51.1266 44.8154 51.207 44.75 51.2692C44.6883 51.3313 44.6084 51.3623 44.5103 51.3623H43.3717C43.2737 51.3623 43.1938 51.3313 43.132 51.2692C43.0703 51.2034 43.0394 51.123 43.0394 51.028V47.4318L41.1218 50.9676C41.0637 51.0736 40.9747 51.1668 40.8549 51.2472C40.735 51.324 40.6188 51.3623 40.5062 51.3623H38.9754C38.8773 51.3623 38.7974 51.3313 38.7357 51.2692C38.6739 51.207 38.6431 51.1266 38.6431 51.028Z" fill="#3A4C79"/>
<path d="M38.6431 51.028V45.6941C38.6431 45.5954 38.6739 45.515 38.7357 45.4529C38.8011 45.3871 38.881 45.3542 38.9754 45.3542H40.114C40.212 45.3542 40.2919 45.3871 40.3537 45.4529C40.419 45.515 40.4517 45.5954 40.4517 45.6941V49.2957L42.3694 45.7489C42.4275 45.6356 42.5164 45.5424 42.6363 45.4693C42.7561 45.3926 42.8724 45.3542 42.9849 45.3542H44.5103C44.6084 45.3542 44.6883 45.3871 44.75 45.4529C44.8154 45.515 44.8481 45.5954 44.8481 45.6941V51.028C44.8481 51.1266 44.8154 51.207 44.75 51.2692C44.6883 51.3313 44.6084 51.3623 44.5103 51.3623H43.3717C43.2737 51.3623 43.1938 51.3313 43.132 51.2692C43.0703 51.2034 43.0394 51.123 43.0394 51.028V47.4318L41.1218 50.9676C41.0637 51.0736 40.9747 51.1668 40.8549 51.2472C40.735 51.324 40.6188 51.3623 40.5062 51.3623H38.9754C38.8773 51.3623 38.7974 51.3313 38.7357 51.2692C38.6739 51.207 38.6431 51.1266 38.6431 51.028Z" fill="black" fill-opacity="0.2"/>
<path d="M51.19 51.472C50.173 51.472 49.3813 51.2089 48.8147 50.6826C48.2482 50.1563 47.9649 49.3834 47.9649 48.3637C47.9649 47.3405 48.2463 46.5657 48.8093 46.0394C49.3722 45.5095 50.1549 45.2445 51.1573 45.2445C52.1633 45.2445 52.9351 45.4053 53.4726 45.7269C54.0137 46.0486 54.2843 46.5237 54.2843 47.1522C54.2843 47.2509 54.2516 47.3313 54.1862 47.3934C54.1245 47.4556 54.0446 47.4866 53.9465 47.4866H53.1348C52.8879 47.4866 52.679 47.3532 52.5083 47.0865C52.294 46.7429 51.9145 46.5712 51.3697 46.5712C50.8286 46.5712 50.4491 46.7119 50.2312 46.9933C50.0169 47.271 49.9097 47.726 49.9097 48.3583C49.9097 48.9905 50.0205 49.4473 50.242 49.7287C50.4672 50.0101 50.8558 50.1508 51.4079 50.1508C51.9635 50.1508 52.3485 49.9791 52.5628 49.6355C52.7335 49.3651 52.9423 49.2299 53.1893 49.2299H54.001C54.0991 49.2299 54.179 49.2628 54.2407 49.3286C54.3061 49.3907 54.3388 49.4693 54.3388 49.5643C54.3388 50.1929 54.0682 50.668 53.5271 50.9896C52.9895 51.3112 52.2105 51.472 51.19 51.472Z" fill="#3A4C79"/>
<path d="M51.19 51.472C50.173 51.472 49.3813 51.2089 48.8147 50.6826C48.2482 50.1563 47.9649 49.3834 47.9649 48.3637C47.9649 47.3405 48.2463 46.5657 48.8093 46.0394C49.3722 45.5095 50.1549 45.2445 51.1573 45.2445C52.1633 45.2445 52.9351 45.4053 53.4726 45.7269C54.0137 46.0486 54.2843 46.5237 54.2843 47.1522C54.2843 47.2509 54.2516 47.3313 54.1862 47.3934C54.1245 47.4556 54.0446 47.4866 53.9465 47.4866H53.1348C52.8879 47.4866 52.679 47.3532 52.5083 47.0865C52.294 46.7429 51.9145 46.5712 51.3697 46.5712C50.8286 46.5712 50.4491 46.7119 50.2312 46.9933C50.0169 47.271 49.9097 47.726 49.9097 48.3583C49.9097 48.9905 50.0205 49.4473 50.242 49.7287C50.4672 50.0101 50.8558 50.1508 51.4079 50.1508C51.9635 50.1508 52.3485 49.9791 52.5628 49.6355C52.7335 49.3651 52.9423 49.2299 53.1893 49.2299H54.001C54.0991 49.2299 54.179 49.2628 54.2407 49.3286C54.3061 49.3907 54.3388 49.4693 54.3388 49.5643C54.3388 50.1929 54.0682 50.668 53.5271 50.9896C52.9895 51.3112 52.2105 51.472 51.19 51.472Z" fill="black" fill-opacity="0.2"/>
<path d="M57.3521 51.028V45.6941C57.3521 45.5954 57.3829 45.515 57.4447 45.4529C57.51 45.3871 57.5899 45.3542 57.6844 45.3542H58.9047C59.0027 45.3542 59.0826 45.3871 59.1444 45.4529C59.2061 45.515 59.237 45.5954 59.237 45.6941V47.6566H61.6231V45.6941C61.6231 45.5954 61.654 45.515 61.7157 45.4529C61.7811 45.3871 61.8628 45.3542 61.9609 45.3542H63.1757C63.2738 45.3542 63.3537 45.3871 63.4154 45.4529C63.4772 45.515 63.508 45.5954 63.508 45.6941V51.028C63.508 51.1266 63.4772 51.207 63.4154 51.2692C63.3537 51.3313 63.2738 51.3623 63.1757 51.3623H61.9609C61.8628 51.3623 61.7811 51.3313 61.7157 51.2692C61.654 51.2034 61.6231 51.123 61.6231 51.028V48.9832H59.237V51.028C59.237 51.1266 59.2043 51.207 59.1389 51.2692C59.0772 51.3313 58.9991 51.3623 58.9047 51.3623H57.6844C57.5863 51.3623 57.5064 51.3313 57.4447 51.2692C57.3829 51.207 57.3521 51.1266 57.3521 51.028Z" fill="#3A4C79"/>
<path d="M57.3521 51.028V45.6941C57.3521 45.5954 57.3829 45.515 57.4447 45.4529C57.51 45.3871 57.5899 45.3542 57.6844 45.3542H58.9047C59.0027 45.3542 59.0826 45.3871 59.1444 45.4529C59.2061 45.515 59.237 45.5954 59.237 45.6941V47.6566H61.6231V45.6941C61.6231 45.5954 61.654 45.515 61.7157 45.4529C61.7811 45.3871 61.8628 45.3542 61.9609 45.3542H63.1757C63.2738 45.3542 63.3537 45.3871 63.4154 45.4529C63.4772 45.515 63.508 45.5954 63.508 45.6941V51.028C63.508 51.1266 63.4772 51.207 63.4154 51.2692C63.3537 51.3313 63.2738 51.3623 63.1757 51.3623H61.9609C61.8628 51.3623 61.7811 51.3313 61.7157 51.2692C61.654 51.2034 61.6231 51.123 61.6231 51.028V48.9832H59.237V51.028C59.237 51.1266 59.2043 51.207 59.1389 51.2692C59.0772 51.3313 58.9991 51.3623 58.9047 51.3623H57.6844C57.5863 51.3623 57.5064 51.3313 57.4447 51.2692C57.3829 51.207 57.3521 51.1266 57.3521 51.028Z" fill="black" fill-opacity="0.2"/>
<path d="M66.968 44.2085V44.0221C66.968 43.8284 67.0225 43.6749 67.1315 43.5616C67.2441 43.4483 67.3984 43.3917 67.5945 43.3917H68.2701C68.4625 43.3917 68.6151 43.4483 68.7277 43.5616C68.8403 43.6712 68.8966 43.8247 68.8966 44.0221V44.2085C68.8966 44.4022 68.8403 44.5556 68.7277 44.6689C68.6187 44.7822 68.4662 44.8389 68.2701 44.8389H67.5945C67.402 44.8389 67.2495 44.7822 67.1369 44.6689C67.0243 44.5556 66.968 44.4022 66.968 44.2085ZM66.9898 51.028V45.8256C66.9898 45.7269 67.0207 45.6465 67.0824 45.5844C67.1478 45.5223 67.2277 45.4912 67.3221 45.4912H68.5424C68.6405 45.4912 68.7204 45.5241 68.7822 45.5899C68.8439 45.652 68.8748 45.7306 68.8748 45.8256V51.028C68.8748 51.1266 68.8421 51.207 68.7767 51.2692C68.715 51.3313 68.6369 51.3623 68.5424 51.3623H67.3221C67.2241 51.3623 67.1442 51.3313 67.0824 51.2692C67.0207 51.207 66.9898 51.1266 66.9898 51.028Z" fill="#3A4C79"/>
<path d="M66.968 44.2085V44.0221C66.968 43.8284 67.0225 43.6749 67.1315 43.5616C67.2441 43.4483 67.3984 43.3917 67.5945 43.3917H68.2701C68.4625 43.3917 68.6151 43.4483 68.7277 43.5616C68.8403 43.6712 68.8966 43.8247 68.8966 44.0221V44.2085C68.8966 44.4022 68.8403 44.5556 68.7277 44.6689C68.6187 44.7822 68.4662 44.8389 68.2701 44.8389H67.5945C67.402 44.8389 67.2495 44.7822 67.1369 44.6689C67.0243 44.5556 66.968 44.4022 66.968 44.2085ZM66.9898 51.028V45.8256C66.9898 45.7269 67.0207 45.6465 67.0824 45.5844C67.1478 45.5223 67.2277 45.4912 67.3221 45.4912H68.5424C68.6405 45.4912 68.7204 45.5241 68.7822 45.5899C68.8439 45.652 68.8748 45.7306 68.8748 45.8256V51.028C68.8748 51.1266 68.8421 51.207 68.7767 51.2692C68.715 51.3313 68.6369 51.3623 68.5424 51.3623H67.3221C67.2241 51.3623 67.1442 51.3313 67.0824 51.2692C67.0207 51.207 66.9898 51.1266 66.9898 51.028Z" fill="black" fill-opacity="0.2"/>
<path d="M84.4077 51.1211C84.4077 51.2819 84.3133 51.3623 84.1244 51.3623H83.0948C82.7461 51.3623 82.4683 51.1906 82.2613 50.847L81.5694 49.7123C81.2716 49.2262 80.8394 48.9832 80.2728 48.9832V51.028C80.2728 51.1266 80.2401 51.207 80.1748 51.2692C80.113 51.3313 80.0349 51.3623 79.9405 51.3623H78.7202C78.6221 51.3623 78.5422 51.3313 78.4805 51.2692C78.4188 51.207 78.3879 51.1266 78.3879 51.028V45.6941C78.3879 45.5954 78.4188 45.515 78.4805 45.4529C78.5459 45.3871 78.6258 45.3542 78.7202 45.3542H79.9405C80.0386 45.3542 80.1185 45.3871 80.1802 45.4529C80.242 45.515 80.2728 45.5954 80.2728 45.6941V47.7333C80.9048 47.7333 81.337 47.4866 81.5694 46.9933L82.0924 45.875C82.165 45.7178 82.2722 45.5917 82.4138 45.4967C82.5554 45.4017 82.708 45.3542 82.8714 45.3542H83.901C84.0826 45.3542 84.1734 45.4254 84.1734 45.568C84.1734 45.6484 84.1444 45.7507 84.0863 45.875L83.3835 47.366C83.2637 47.6146 83.1002 47.8283 82.8932 48.0074C82.6862 48.1865 82.4628 48.3016 82.2231 48.3528C82.6698 48.488 83.0566 48.8169 83.3835 49.3395L84.3096 50.847C84.3714 50.953 84.4041 51.0444 84.4077 51.1211Z" fill="#3A4C79"/>
<path d="M84.4077 51.1211C84.4077 51.2819 84.3133 51.3623 84.1244 51.3623H83.0948C82.7461 51.3623 82.4683 51.1906 82.2613 50.847L81.5694 49.7123C81.2716 49.2262 80.8394 48.9832 80.2728 48.9832V51.028C80.2728 51.1266 80.2401 51.207 80.1748 51.2692C80.113 51.3313 80.0349 51.3623 79.9405 51.3623H78.7202C78.6221 51.3623 78.5422 51.3313 78.4805 51.2692C78.4188 51.207 78.3879 51.1266 78.3879 51.028V45.6941C78.3879 45.5954 78.4188 45.515 78.4805 45.4529C78.5459 45.3871 78.6258 45.3542 78.7202 45.3542H79.9405C80.0386 45.3542 80.1185 45.3871 80.1802 45.4529C80.242 45.515 80.2728 45.5954 80.2728 45.6941V47.7333C80.9048 47.7333 81.337 47.4866 81.5694 46.9933L82.0924 45.875C82.165 45.7178 82.2722 45.5917 82.4138 45.4967C82.5554 45.4017 82.708 45.3542 82.8714 45.3542H83.901C84.0826 45.3542 84.1734 45.4254 84.1734 45.568C84.1734 45.6484 84.1444 45.7507 84.0863 45.875L83.3835 47.366C83.2637 47.6146 83.1002 47.8283 82.8932 48.0074C82.6862 48.1865 82.4628 48.3016 82.2231 48.3528C82.6698 48.488 83.0566 48.8169 83.3835 49.3395L84.3096 50.847C84.3714 50.953 84.4041 51.0444 84.4077 51.1211Z" fill="black" fill-opacity="0.2"/>
<path d="M87.7206 50.6826C87.154 50.1563 86.8708 49.3816 86.8708 48.3583C86.8708 47.3313 87.154 46.5565 87.7206 46.0339C88.2872 45.5077 89.1007 45.2445 90.1612 45.2445C91.2253 45.2445 92.0407 45.5077 92.6073 46.0339C93.1738 46.5565 93.4571 47.3313 93.4571 48.3583C93.4571 49.3816 93.1738 50.1563 92.6073 50.6826C92.0407 51.2089 91.2253 51.472 90.1612 51.472C89.1007 51.472 88.2872 51.2089 87.7206 50.6826ZM89.0989 46.933C88.8737 47.229 88.7611 47.7023 88.7611 48.3528C88.7611 49.0033 88.8737 49.4784 89.0989 49.7781C89.3241 50.0778 89.6782 50.2276 90.1612 50.2276C90.6479 50.2276 91.0038 50.0778 91.229 49.7781C91.4578 49.4784 91.5722 49.0033 91.5722 48.3528C91.5722 47.7023 91.4578 47.229 91.229 46.933C91.0038 46.6369 90.6479 46.4889 90.1612 46.4889C89.6782 46.4889 89.3241 46.6369 89.0989 46.933Z" fill="#3A4C79"/>
<path d="M87.7206 50.6826C87.154 50.1563 86.8708 49.3816 86.8708 48.3583C86.8708 47.3313 87.154 46.5565 87.7206 46.0339C88.2872 45.5077 89.1007 45.2445 90.1612 45.2445C91.2253 45.2445 92.0407 45.5077 92.6073 46.0339C93.1738 46.5565 93.4571 47.3313 93.4571 48.3583C93.4571 49.3816 93.1738 50.1563 92.6073 50.6826C92.0407 51.2089 91.2253 51.472 90.1612 51.472C89.1007 51.472 88.2872 51.2089 87.7206 50.6826ZM89.0989 46.933C88.8737 47.229 88.7611 47.7023 88.7611 48.3528C88.7611 49.0033 88.8737 49.4784 89.0989 49.7781C89.3241 50.0778 89.6782 50.2276 90.1612 50.2276C90.6479 50.2276 91.0038 50.0778 91.229 49.7781C91.4578 49.4784 91.5722 49.0033 91.5722 48.3528C91.5722 47.7023 91.4578 47.229 91.229 46.933C91.0038 46.6369 90.6479 46.4889 90.1612 46.4889C89.6782 46.4889 89.3241 46.6369 89.0989 46.933Z" fill="black" fill-opacity="0.2"/>
<path d="M96.5848 51.028V45.6941C96.5848 45.5954 96.6157 45.515 96.6774 45.4529C96.7428 45.3871 96.8227 45.3542 96.9171 45.3542H98.7912C99.0054 45.3542 99.1689 45.4894 99.2814 45.7598L100.611 49.0271L101.94 45.7598C102.053 45.4894 102.216 45.3542 102.43 45.3542H104.304C104.402 45.3542 104.482 45.3871 104.544 45.4529C104.609 45.515 104.642 45.5954 104.642 45.6941V51.028C104.642 51.1266 104.609 51.207 104.544 51.2692C104.482 51.3313 104.402 51.3623 104.304 51.3623H103.122C103.024 51.3623 102.944 51.3313 102.882 51.2692C102.821 51.2034 102.79 51.123 102.79 51.028V47.6018L101.395 50.9786C101.283 51.2344 101.11 51.3623 100.878 51.3623H100.344C100.115 51.3623 99.9443 51.2344 99.8317 50.9786L98.437 47.6018V51.028C98.437 51.1266 98.4043 51.207 98.339 51.2692C98.2772 51.3313 98.1973 51.3623 98.0993 51.3623H96.9171C96.8191 51.3623 96.7391 51.3313 96.6774 51.2692C96.6157 51.207 96.5848 51.1266 96.5848 51.028Z" fill="#3A4C79"/>
<path d="M96.5848 51.028V45.6941C96.5848 45.5954 96.6157 45.515 96.6774 45.4529C96.7428 45.3871 96.8227 45.3542 96.9171 45.3542H98.7912C99.0054 45.3542 99.1689 45.4894 99.2814 45.7598L100.611 49.0271L101.94 45.7598C102.053 45.4894 102.216 45.3542 102.43 45.3542H104.304C104.402 45.3542 104.482 45.3871 104.544 45.4529C104.609 45.515 104.642 45.5954 104.642 45.6941V51.028C104.642 51.1266 104.609 51.207 104.544 51.2692C104.482 51.3313 104.402 51.3623 104.304 51.3623H103.122C103.024 51.3623 102.944 51.3313 102.882 51.2692C102.821 51.2034 102.79 51.123 102.79 51.028V47.6018L101.395 50.9786C101.283 51.2344 101.11 51.3623 100.878 51.3623H100.344C100.115 51.3623 99.9443 51.2344 99.8317 50.9786L98.437 47.6018V51.028C98.437 51.1266 98.4043 51.207 98.339 51.2692C98.2772 51.3313 98.1973 51.3623 98.0993 51.3623H96.9171C96.8191 51.3623 96.7391 51.3313 96.6774 51.2692C96.6157 51.207 96.5848 51.1266 96.5848 51.028Z" fill="black" fill-opacity="0.2"/>
<path d="M108.097 51.028V45.6941C108.097 45.5954 108.127 45.515 108.189 45.4529C108.255 45.3871 108.334 45.3542 108.429 45.3542H113.92C114.018 45.3542 114.098 45.3871 114.16 45.4529C114.222 45.515 114.253 45.5954 114.253 45.6941V51.028C114.253 51.1266 114.222 51.207 114.16 51.2692C114.098 51.3313 114.018 51.3623 113.92 51.3623H112.705C112.607 51.3623 112.526 51.3313 112.46 51.2692C112.399 51.2034 112.368 51.123 112.368 51.028V46.6808H109.982V51.028C109.982 51.1266 109.949 51.207 109.883 51.2692C109.822 51.3313 109.744 51.3623 109.649 51.3623H108.429C108.331 51.3623 108.251 51.3313 108.189 51.2692C108.127 51.207 108.097 51.1266 108.097 51.028Z" fill="#3A4C79"/>
<path d="M108.097 51.028V45.6941C108.097 45.5954 108.127 45.515 108.189 45.4529C108.255 45.3871 108.334 45.3542 108.429 45.3542H113.92C114.018 45.3542 114.098 45.3871 114.16 45.4529C114.222 45.515 114.253 45.5954 114.253 45.6941V51.028C114.253 51.1266 114.222 51.207 114.16 51.2692C114.098 51.3313 114.018 51.3623 113.92 51.3623H112.705C112.607 51.3623 112.526 51.3313 112.46 51.2692C112.399 51.2034 112.368 51.123 112.368 51.028V46.6808H109.982V51.028C109.982 51.1266 109.949 51.207 109.883 51.2692C109.822 51.3313 109.744 51.3623 109.649 51.3623H108.429C108.331 51.3623 108.251 51.3313 108.189 51.2692C108.127 51.207 108.097 51.1266 108.097 51.028Z" fill="black" fill-opacity="0.2"/>
<path d="M118.225 50.6826C117.658 50.1563 117.375 49.3816 117.375 48.3583C117.375 47.3313 117.658 46.5565 118.225 46.0339C118.791 45.5077 119.605 45.2445 120.665 45.2445C121.729 45.2445 122.545 45.5077 123.111 46.0339C123.678 46.5565 123.961 47.3313 123.961 48.3583C123.961 49.3816 123.678 50.1563 123.111 50.6826C122.545 51.2089 121.729 51.472 120.665 51.472C119.605 51.472 118.791 51.2089 118.225 50.6826ZM119.603 46.933C119.378 47.229 119.265 47.7023 119.265 48.3528C119.265 49.0033 119.378 49.4784 119.603 49.7781C119.828 50.0778 120.182 50.2276 120.665 50.2276C121.152 50.2276 121.508 50.0778 121.733 49.7781C121.962 49.4784 122.076 49.0033 122.076 48.3528C122.076 47.7023 121.962 47.229 121.733 46.933C121.508 46.6369 121.152 46.4889 120.665 46.4889C120.182 46.4889 119.828 46.6369 119.603 46.933Z" fill="#3A4C79"/>
<path d="M118.225 50.6826C117.658 50.1563 117.375 49.3816 117.375 48.3583C117.375 47.3313 117.658 46.5565 118.225 46.0339C118.791 45.5077 119.605 45.2445 120.665 45.2445C121.729 45.2445 122.545 45.5077 123.111 46.0339C123.678 46.5565 123.961 47.3313 123.961 48.3583C123.961 49.3816 123.678 50.1563 123.111 50.6826C122.545 51.2089 121.729 51.472 120.665 51.472C119.605 51.472 118.791 51.2089 118.225 50.6826ZM119.603 46.933C119.378 47.229 119.265 47.7023 119.265 48.3528C119.265 49.0033 119.378 49.4784 119.603 49.7781C119.828 50.0778 120.182 50.2276 120.665 50.2276C121.152 50.2276 121.508 50.0778 121.733 49.7781C121.962 49.4784 122.076 49.0033 122.076 48.3528C122.076 47.7023 121.962 47.229 121.733 46.933C121.508 46.6369 121.152 46.4889 120.665 46.4889C120.182 46.4889 119.828 46.6369 119.603 46.933Z" fill="black" fill-opacity="0.2"/>
<path d="M127.089 51.028V45.6941C127.089 45.5954 127.12 45.515 127.181 45.4529C127.247 45.3871 127.327 45.3542 127.421 45.3542H128.641C128.74 45.3542 128.819 45.3871 128.881 45.4529C128.943 45.515 128.974 45.5954 128.974 45.6941V47.6566H131.36V45.6941C131.36 45.5954 131.391 45.515 131.453 45.4529C131.518 45.3871 131.6 45.3542 131.698 45.3542H132.913C133.011 45.3542 133.091 45.3871 133.152 45.4529C133.214 45.515 133.245 45.5954 133.245 45.6941V51.028C133.245 51.1266 133.214 51.207 133.152 51.2692C133.091 51.3313 133.011 51.3623 132.913 51.3623H131.698C131.6 51.3623 131.518 51.3313 131.453 51.2692C131.391 51.2034 131.36 51.123 131.36 51.028V48.9832H128.974V51.028C128.974 51.1266 128.941 51.207 128.876 51.2692C128.814 51.3313 128.736 51.3623 128.641 51.3623H127.421C127.323 51.3623 127.243 51.3313 127.181 51.2692C127.12 51.207 127.089 51.1266 127.089 51.028Z" fill="#3A4C79"/>
<path d="M127.089 51.028V45.6941C127.089 45.5954 127.12 45.515 127.181 45.4529C127.247 45.3871 127.327 45.3542 127.421 45.3542H128.641C128.74 45.3542 128.819 45.3871 128.881 45.4529C128.943 45.515 128.974 45.5954 128.974 45.6941V47.6566H131.36V45.6941C131.36 45.5954 131.391 45.515 131.453 45.4529C131.518 45.3871 131.6 45.3542 131.698 45.3542H132.913C133.011 45.3542 133.091 45.3871 133.152 45.4529C133.214 45.515 133.245 45.5954 133.245 45.6941V51.028C133.245 51.1266 133.214 51.207 133.152 51.2692C133.091 51.3313 133.011 51.3623 132.913 51.3623H131.698C131.6 51.3623 131.518 51.3313 131.453 51.2692C131.391 51.2034 131.36 51.123 131.36 51.028V48.9832H128.974V51.028C128.974 51.1266 128.941 51.207 128.876 51.2692C128.814 51.3313 128.736 51.3623 128.641 51.3623H127.421C127.323 51.3623 127.243 51.3313 127.181 51.2692C127.12 51.207 127.089 51.1266 127.089 51.028Z" fill="black" fill-opacity="0.2"/>
<path d="M137.206 50.6716C136.647 50.1381 136.367 49.3706 136.367 48.3692C136.367 47.3642 136.649 46.5931 137.212 46.0559C137.774 45.515 138.555 45.2445 139.554 45.2445C140.553 45.2445 141.332 45.5077 141.891 46.0339C142.45 46.5565 142.73 47.3076 142.73 48.287V48.5995C142.73 48.6981 142.697 48.7804 142.632 48.8462C142.57 48.9083 142.49 48.9393 142.392 48.9393H138.29C138.326 49.3889 138.454 49.7159 138.672 49.9206C138.893 50.1253 139.245 50.2276 139.728 50.2276C140.211 50.2276 140.542 50.118 140.72 49.8987C140.898 49.6794 141.118 49.5679 141.379 49.5643H142.191C142.289 49.5643 142.369 49.5972 142.43 49.663C142.496 49.7251 142.529 49.8055 142.529 49.9042C142.529 50.953 141.535 51.4756 139.549 51.472C138.546 51.472 137.765 51.2052 137.206 50.6716ZM138.279 47.7827H140.812C140.776 46.9202 140.355 46.4889 139.549 46.4889C138.746 46.4889 138.323 46.9202 138.279 47.7827Z" fill="#3A4C79"/>
<path d="M137.206 50.6716C136.647 50.1381 136.367 49.3706 136.367 48.3692C136.367 47.3642 136.649 46.5931 137.212 46.0559C137.774 45.515 138.555 45.2445 139.554 45.2445C140.553 45.2445 141.332 45.5077 141.891 46.0339C142.45 46.5565 142.73 47.3076 142.73 48.287V48.5995C142.73 48.6981 142.697 48.7804 142.632 48.8462C142.57 48.9083 142.49 48.9393 142.392 48.9393H138.29C138.326 49.3889 138.454 49.7159 138.672 49.9206C138.893 50.1253 139.245 50.2276 139.728 50.2276C140.211 50.2276 140.542 50.118 140.72 49.8987C140.898 49.6794 141.118 49.5679 141.379 49.5643H142.191C142.289 49.5643 142.369 49.5972 142.43 49.663C142.496 49.7251 142.529 49.8055 142.529 49.9042C142.529 50.953 141.535 51.4756 139.549 51.472C138.546 51.472 137.765 51.2052 137.206 50.6716ZM138.279 47.7827H140.812C140.776 46.9202 140.355 46.4889 139.549 46.4889C138.746 46.4889 138.323 46.9202 138.279 47.7827Z" fill="black" fill-opacity="0.2"/>
<path d="M145.852 51.028V45.6941C145.852 45.5954 145.883 45.515 145.945 45.4529C146.01 45.3871 146.09 45.3542 146.185 45.3542H147.405C147.503 45.3542 147.583 45.3871 147.645 45.4529C147.706 45.515 147.737 45.5954 147.737 45.6941V47.6566H150.123V45.6941C150.123 45.5954 150.154 45.515 150.216 45.4529C150.281 45.3871 150.363 45.3542 150.461 45.3542H151.676C151.774 45.3542 151.854 45.3871 151.916 45.4529C151.977 45.515 152.008 45.5954 152.008 45.6941V51.028C152.008 51.1266 151.977 51.207 151.916 51.2692C151.854 51.3313 151.774 51.3623 151.676 51.3623H150.461C150.363 51.3623 150.281 51.3313 150.216 51.2692C150.154 51.2034 150.123 51.123 150.123 51.028V48.9832H147.737V51.028C147.737 51.1266 147.705 51.207 147.639 51.2692C147.577 51.3313 147.499 51.3623 147.405 51.3623H146.185C146.087 51.3623 146.007 51.3313 145.945 51.2692C145.883 51.207 145.852 51.1266 145.852 51.028Z" fill="#3A4C79"/>
<path d="M145.852 51.028V45.6941C145.852 45.5954 145.883 45.515 145.945 45.4529C146.01 45.3871 146.09 45.3542 146.185 45.3542H147.405C147.503 45.3542 147.583 45.3871 147.645 45.4529C147.706 45.515 147.737 45.5954 147.737 45.6941V47.6566H150.123V45.6941C150.123 45.5954 150.154 45.515 150.216 45.4529C150.281 45.3871 150.363 45.3542 150.461 45.3542H151.676C151.774 45.3542 151.854 45.3871 151.916 45.4529C151.977 45.515 152.008 45.5954 152.008 45.6941V51.028C152.008 51.1266 151.977 51.207 151.916 51.2692C151.854 51.3313 151.774 51.3623 151.676 51.3623H150.461C150.363 51.3623 150.281 51.3313 150.216 51.2692C150.154 51.2034 150.123 51.123 150.123 51.028V48.9832H147.737V51.028C147.737 51.1266 147.705 51.207 147.639 51.2692C147.577 51.3313 147.499 51.3623 147.405 51.3623H146.185C146.087 51.3623 146.007 51.3313 145.945 51.2692C145.883 51.207 145.852 51.1266 145.852 51.028Z" fill="black" fill-opacity="0.2"/>
<path d="M154.907 46.3464V45.6941C154.907 45.5954 154.938 45.515 155 45.4529C155.065 45.3871 155.147 45.3542 155.245 45.3542H160.611C160.709 45.3542 160.789 45.3871 160.851 45.4529C160.912 45.515 160.943 45.5954 160.943 45.6941V46.3464C160.943 46.4414 160.912 46.5218 160.851 46.5876C160.789 46.6497 160.709 46.6808 160.611 46.6808H158.873V51.028C158.873 51.123 158.841 51.2034 158.775 51.2692C158.713 51.3313 158.633 51.3623 158.535 51.3623H157.321C157.223 51.3623 157.141 51.3313 157.075 51.2692C157.014 51.2034 156.983 51.123 156.983 51.028V46.6808H155.245C155.147 46.6808 155.065 46.6497 155 46.5876C154.938 46.5218 154.907 46.4414 154.907 46.3464Z" fill="#3A4C79"/>
<path d="M154.907 46.3464V45.6941C154.907 45.5954 154.938 45.515 155 45.4529C155.065 45.3871 155.147 45.3542 155.245 45.3542H160.611C160.709 45.3542 160.789 45.3871 160.851 45.4529C160.912 45.515 160.943 45.5954 160.943 45.6941V46.3464C160.943 46.4414 160.912 46.5218 160.851 46.5876C160.789 46.6497 160.709 46.6808 160.611 46.6808H158.873V51.028C158.873 51.123 158.841 51.2034 158.775 51.2692C158.713 51.3313 158.633 51.3623 158.535 51.3623H157.321C157.223 51.3623 157.141 51.3313 157.075 51.2692C157.014 51.2034 156.983 51.123 156.983 51.028V46.6808H155.245C155.147 46.6808 155.065 46.6497 155 46.5876C154.938 46.5218 154.907 46.4414 154.907 46.3464Z" fill="black" fill-opacity="0.2"/>
<path d="M163.853 51.028V45.6941C163.853 45.5954 163.884 45.515 163.946 45.4529C164.011 45.3871 164.091 45.3542 164.185 45.3542H165.324C165.422 45.3542 165.502 45.3871 165.564 45.4529C165.629 45.515 165.662 45.5954 165.662 45.6941V49.2957L167.579 45.7489C167.638 45.6356 167.726 45.5424 167.846 45.4693C167.966 45.3926 168.082 45.3542 168.195 45.3542H169.72C169.818 45.3542 169.898 45.3871 169.96 45.4529C170.025 45.515 170.058 45.5954 170.058 45.6941V51.028C170.058 51.1266 170.025 51.207 169.96 51.2692C169.898 51.3313 169.818 51.3623 169.72 51.3623H168.582C168.484 51.3623 168.404 51.3313 168.342 51.2692C168.28 51.2034 168.249 51.123 168.249 51.028V47.4318L166.332 50.9676C166.274 51.0736 166.185 51.1668 166.065 51.2472C165.945 51.324 165.829 51.3623 165.716 51.3623H164.185C164.087 51.3623 164.007 51.3313 163.946 51.2692C163.884 51.207 163.853 51.1266 163.853 51.028Z" fill="#3A4C79"/>
<path d="M163.853 51.028V45.6941C163.853 45.5954 163.884 45.515 163.946 45.4529C164.011 45.3871 164.091 45.3542 164.185 45.3542H165.324C165.422 45.3542 165.502 45.3871 165.564 45.4529C165.629 45.515 165.662 45.5954 165.662 45.6941V49.2957L167.579 45.7489C167.638 45.6356 167.726 45.5424 167.846 45.4693C167.966 45.3926 168.082 45.3542 168.195 45.3542H169.72C169.818 45.3542 169.898 45.3871 169.96 45.4529C170.025 45.515 170.058 45.5954 170.058 45.6941V51.028C170.058 51.1266 170.025 51.207 169.96 51.2692C169.898 51.3313 169.818 51.3623 169.72 51.3623H168.582C168.484 51.3623 168.404 51.3313 168.342 51.2692C168.28 51.2034 168.249 51.123 168.249 51.028V47.4318L166.332 50.9676C166.274 51.0736 166.185 51.1668 166.065 51.2472C165.945 51.324 165.829 51.3623 165.716 51.3623H164.185C164.087 51.3623 164.007 51.3313 163.946 51.2692C163.884 51.207 163.853 51.1266 163.853 51.028Z" fill="black" fill-opacity="0.2"/>
</svg>
