<svg width="175" height="24" viewBox="0 0 175 24" fill="none" xmlns="http://www.w3.org/2000/svg">
<path d="M0.00426191 0L20.2541 0.0224421L20.2498 3.42826L11.9345 3.41904L11.909 23.8374L8.28976 23.8333L8.31532 3.41503L0 3.40582L0.00426191 0Z" fill="#3A4C79"/>
<path d="M51.4589 8.56328C51.4547 11.886 49.9458 13.7783 46.9322 14.2402L51.6869 23.8814L47.6793 23.877L42.9951 14.3521L35.0682 14.3433L35.0563 23.863L31.4371 23.859L31.4669 0.0348674L45.3257 0.0502276C49.4216 0.0547668 51.4671 1.98977 51.4623 5.85524L51.4589 8.56328ZM35.0724 10.9375L45.1179 10.9486C46.083 10.9497 46.7777 10.7511 47.2019 10.3528C47.6261 9.95459 47.8388 9.30135 47.8399 8.39313L47.8429 6.01736C47.844 5.10914 47.633 4.45544 47.2098 4.05624C46.7866 3.65704 46.0924 3.4569 45.1273 3.45583L35.0818 3.4447L35.0724 10.9375Z" fill="#3A4C79"/>
<path d="M68.014 0.0753703L67.9842 23.8995L64.365 23.8955L64.3948 0.0713604L68.014 0.0753703Z" fill="#3A4C79"/>
<path d="M94.4329 23.9288L85.0096 6.45728L84.9877 23.9183L81.3685 23.9143L81.3983 0.0902035L85.353 0.0945858L94.9699 18.0481L104.649 0.11597L108.586 0.120333L108.557 23.9445L104.955 23.9405L104.977 6.47941L95.5098 23.93L94.4329 23.9288Z" fill="#3A4C79"/>
<path d="M133.199 0.147609L142.932 23.9826L139.313 23.9785L137.078 18.4935L125.655 18.4809L123.406 23.9609L119.787 23.9569L129.58 0.143599L133.199 0.147609ZM127.037 15.0766L135.687 15.0862L131.393 4.58149L127.037 15.0766Z" fill="#3A4C79"/>
<path d="M155.475 0.0529521L162.823 11.1923L170.217 0.0692904L174.419 0.0739473L164.638 14.434L164.626 23.8873L161.007 23.8832L161.018 14.43L151.273 0.0482957L155.475 0.0529521Z" fill="#3A4C79"/>
<path d="M139.416 0.0780299L149.149 23.913L145.53 23.909L143.295 18.4239L131.872 18.4113L129.623 23.8913L126.004 23.8873L135.797 0.0740191L139.416 0.0780299ZM133.254 15.007L141.905 15.0166L137.61 4.51191L133.254 15.007Z" fill="#3A4C79"/>
</svg>
