<svg width="16" height="17" viewBox="0 0 16 17" fill="none" xmlns="http://www.w3.org/2000/svg">
<path d="M8.00024 5.49023C8.79835 5.49026 9.56373 5.80685 10.1282 6.37109C10.6927 6.9356 11.01 7.70167 11.01 8.5C11.01 9.29829 10.6927 10.0635 10.1282 10.6279C9.5637 11.1924 8.79853 11.5097 8.00024 11.5098C7.20192 11.5098 6.43584 11.1924 5.87134 10.6279C5.3071 10.0635 4.99051 9.29811 4.99048 8.5C4.99048 7.70167 5.30683 6.9356 5.87134 6.37109C6.43584 5.80659 7.20192 5.49023 8.00024 5.49023Z" stroke="#000E55" stroke-width="1.09091" stroke-linecap="round" stroke-linejoin="round"/>
<path d="M4.44434 1.0459H11.5557C12.5897 1.04593 13.5813 1.45632 14.3125 2.1875C15.0437 2.91868 15.4541 3.9103 15.4541 4.94434V12.0557C15.4541 13.0897 15.0437 14.0813 14.3125 14.8125C13.5813 15.5437 12.5897 15.9541 11.5557 15.9541H4.44434C3.4103 15.9541 2.41868 15.5437 1.6875 14.8125C0.956323 14.0813 0.545927 13.0897 0.545898 12.0557V4.94434C0.545927 3.9103 0.956323 2.91868 1.6875 2.1875C2.41868 1.45632 3.4103 1.04593 4.44434 1.0459Z" stroke="#000E55" stroke-width="1.09091"/>
<mask id="path-3-inside-1_264_27073" fill="white">
<path d="M12.8906 3.62188L12.9011 3.61035L12.8906 3.62188Z"/>
</mask>
<path d="M12.0834 2.88805C11.6781 3.33386 11.711 4.0238 12.1568 4.42908C12.6026 4.83436 13.2925 4.80151 13.6978 4.35571L12.0834 2.88805ZM13.7083 4.34418C14.1136 3.89837 14.0807 3.20843 13.6349 2.80315C13.1891 2.39787 12.4992 2.43072 12.0939 2.87652L13.7083 4.34418ZM12.8906 3.62188L13.6978 4.35571L13.7083 4.34418L12.9011 3.61035L12.0939 2.87652L12.0834 2.88805L12.8906 3.62188Z" fill="#000E55" mask="url(#path-3-inside-1_264_27073)"/>
</svg>
