<svg width="17" height="17" viewBox="0 0 17 17" fill="none" xmlns="http://www.w3.org/2000/svg">
<path d="M14.8155 1.00151C14.6179 1.01641 14.424 1.06352 14.2412 1.14104H14.2387C14.0633 1.21174 13.2293 1.56837 11.9613 2.10895L7.41748 4.05417C4.15703 5.44942 0.951991 6.82339 0.951991 6.82339L0.990154 6.80838C0.990154 6.80838 0.76918 6.88221 0.538358 7.043C0.395434 7.13482 0.27265 7.25558 0.17766 7.39776C0.0644027 7.56669 -0.0266951 7.82509 0.00715884 8.09226C0.0625562 8.54399 0.350622 8.81491 0.557439 8.96444C0.766718 9.11585 0.966148 9.18655 0.966148 9.18655H0.971073L3.97669 10.2158C4.11149 10.6556 4.89259 13.2659 5.08032 13.8672C5.19112 14.2263 5.29884 14.451 5.43364 14.6224C5.49806 14.71 5.57582 14.7832 5.66692 14.842C5.71424 14.8709 5.76517 14.8932 5.81834 14.9083L5.78756 14.9008C5.7968 14.9033 5.80418 14.9108 5.81095 14.9133C5.83557 14.9202 5.85219 14.9227 5.88359 14.9277C6.35939 15.0741 6.74163 14.7738 6.74163 14.7738L6.76317 14.7563L8.53773 13.1139L11.512 15.4333L11.5797 15.4627C12.1995 15.7392 12.8273 15.5853 13.1591 15.3138C13.4933 15.0403 13.6232 14.6906 13.6232 14.6906L13.6448 14.6343L15.9431 2.6658C16.0084 2.37048 16.025 2.09394 15.953 1.82552C15.8791 1.55368 15.7075 1.31992 15.4722 1.17044C15.275 1.04844 15.0461 0.989579 14.8155 1.00151ZM14.7533 2.28414C14.7509 2.32356 14.7582 2.31918 14.741 2.39489V2.40177L12.4642 14.2457C12.4543 14.2626 12.4377 14.2995 12.3922 14.3365C12.3441 14.3753 12.306 14.3997 12.1059 14.3189L8.46818 11.484L6.27075 13.52L6.7324 10.523L12.6759 4.89194C12.9209 4.66044 12.839 4.61164 12.839 4.61164C12.8563 4.32759 12.4691 4.52843 12.4691 4.52843L4.97445 9.24787L4.97199 9.23536L1.37978 8.00591V8.00341L1.37055 8.00153L1.38901 7.99402L1.40871 7.98401L1.42779 7.97713C1.42779 7.97713 4.6353 6.60316 7.89574 5.20791C9.52812 4.50903 11.1728 3.80515 12.4377 3.26207C13.1879 2.9411 13.9388 2.622 14.6905 2.30479C14.741 2.28477 14.717 2.28414 14.7533 2.28414Z" fill="#000E55"/>
</svg>
