<svg width="17" height="17" viewBox="0 0 17 17" fill="none" xmlns="http://www.w3.org/2000/svg">
<path d="M14.4541 1.65538C14.028 1.26695 12.3034 0.0286272 8.45838 0.0120277C8.45838 0.0120277 3.92554 -0.256884 1.71783 1.74833C0.489838 2.96341 0.0570201 4.7462 0.0100477 6.95393C-0.0369248 9.16166 -0.0939628 13.2982 3.9356 14.4204H3.93896L3.9356 16.1334C3.9356 16.1334 3.90876 16.8273 4.37177 16.9667C4.92873 17.1394 5.25754 16.6115 5.79101 16.0438C6.08291 15.7317 6.48554 15.2736 6.79086 14.925C9.54881 15.1541 11.6659 14.6295 11.9075 14.5532C12.4645 14.3739 15.615 13.9755 16.125 9.83892C16.6551 5.56953 15.87 2.87378 14.4541 1.65538ZM14.9204 9.52685C14.4876 12.9795 11.9343 13.1987 11.4646 13.348C11.2633 13.4111 9.40118 13.8693 7.06262 13.7199C7.06262 13.7199 5.31793 15.8014 4.7744 16.3426C4.59657 16.5185 4.40197 16.5019 4.40533 16.1534C4.40533 15.9243 4.41875 13.3082 4.41875 13.3082C4.41539 13.3082 4.41539 13.3082 4.41875 13.3082C1.00318 12.372 1.20449 8.84959 1.2414 7.00705C1.2783 5.16451 1.6306 3.65395 2.6707 2.63806C4.53953 0.961518 8.38792 1.21051 8.38792 1.21051C11.6391 1.22379 13.1959 2.1932 13.5582 2.51855C14.756 3.53444 15.3667 5.9646 14.9204 9.52685ZM10.2568 6.84437C10.2702 7.12988 9.83736 7.1498 9.82393 6.86429C9.78703 6.13391 9.44144 5.77869 8.73015 5.73885C8.4416 5.72225 8.46844 5.29398 8.75363 5.31058C9.68973 5.36038 10.2098 5.89156 10.2568 6.84437ZM10.9379 7.21952C10.9714 5.81188 10.0823 4.70968 8.39463 4.58684C8.10944 4.56692 8.13964 4.13866 8.42483 4.15858C10.3708 4.29801 11.4076 5.62265 11.3707 7.22948C11.3673 7.51499 10.9311 7.50171 10.9379 7.21952ZM12.5148 7.66439C12.5181 7.9499 12.082 7.95322 12.082 7.66771C12.0618 4.96199 10.24 3.48796 8.02892 3.47136C7.74373 3.46804 7.74373 3.04309 8.02892 3.04309C10.5017 3.05969 12.4913 4.74952 12.5148 7.66439ZM12.1356 10.9212V10.9278C11.7733 11.5586 11.0955 12.2558 10.3977 12.0334L10.391 12.0234C9.68302 11.8275 8.01549 10.9776 6.96197 10.1477C6.41843 9.72272 5.92187 9.22142 5.53938 8.74003C5.19379 8.31176 4.84485 7.80382 4.50598 7.19296C3.79133 5.9148 3.63364 5.34378 3.63364 5.34378C3.40884 4.65324 4.11007 3.98262 4.75091 3.62407H4.75762C5.0663 3.46472 5.36155 3.51784 5.55951 3.75355C5.55951 3.75355 5.97555 4.24489 6.15337 4.48725C6.32113 4.713 6.54593 5.07487 6.66336 5.27738C6.86803 5.63925 6.74053 6.00776 6.53922 6.16047L6.1366 6.47918C5.93193 6.64186 5.95877 6.94397 5.95877 6.94397C5.95877 6.94397 6.55599 9.17826 8.78719 9.74264C8.78719 9.74264 9.09251 9.7692 9.25691 9.56669L9.57901 9.1683C9.73335 8.9691 10.1058 8.84295 10.4715 9.04546C10.9647 9.32101 11.5921 9.74928 12.0082 10.1377C12.243 10.3269 12.2967 10.6158 12.1356 10.9212Z" fill="#000E55"/>
</svg>
