<svg width="20" height="20" viewBox="0 0 20 20" fill="none" xmlns="http://www.w3.org/2000/svg">
<path d="M1.51025 5.57573V14.1851L9.88047 18.4898M1.51025 5.57573L9.88047 10.1196M1.51025 5.57573L4.54886 4.14083L4.64326 4.09625M9.88047 18.4898L18.4898 14.1851V5.81488M9.88047 18.4898V10.1196M18.4898 5.81488L10.1196 1.51019L7.08102 2.94509M18.4898 5.81488L15.6201 7.24977M9.88047 10.1196L13.2286 8.44552M7.08102 2.94509L15.6201 7.24977M7.08102 2.94509L4.64326 4.09625M15.6201 7.24977V11.3153L13.2286 12.5111V8.44552M15.6201 7.24977L13.2286 8.44552M13.2286 8.44552L4.64326 4.09625M4.14089 8.92382L7.48898 10.5979V12.7502L4.14089 11.0762V8.92382Z" stroke="currentColor" stroke-width="1.0449" stroke-linejoin="round"/>
</svg>
