<svg width="24" height="15" viewBox="0 0 24 15" fill="none" xmlns="http://www.w3.org/2000/svg">
<path d="M0 0.824397C0 0.369095 0.352441 0 0.7872 0H23.2128C23.6476 0 24 0.369095 24 0.824397C24 1.2797 23.6476 1.64879 23.2128 1.64879H0.787199C0.352441 1.64879 0 1.2797 0 0.824397Z" fill="currentColor"/>
<path d="M0 7.5C0 7.0447 0.352441 6.6756 0.7872 6.6756H23.2128C23.6476 6.6756 24 7.0447 24 7.5C24 7.9553 23.6476 8.3244 23.2128 8.3244H0.787199C0.352441 8.3244 0 7.9553 0 7.5Z" fill="currentColor"/>
<path d="M0 14.1756C0 13.7203 0.352441 13.3512 0.7872 13.3512H23.2128C23.6476 13.3512 24 13.7203 24 14.1756C24 14.6309 23.6476 15 23.2128 15H0.787199C0.352441 15 0 14.6309 0 14.1756Z" fill="currentColor"/>
</svg>
