<svg width="18" height="18" viewBox="0 0 18 18" fill="none" xmlns="http://www.w3.org/2000/svg">
<path d="M15.6122 7.81631C15.6122 9.82259 14.7874 11.6362 13.4584 12.9366C12.1667 14.2005 10.3988 14.9796 8.44891 14.9796C4.49275 14.9796 1.28564 11.7725 1.28564 7.81631C1.28564 3.86015 4.49275 0.653046 8.44891 0.653046C12.4051 0.653046 15.6122 3.86015 15.6122 7.81631ZM2.37667 7.81631C2.37667 11.1699 5.09531 13.8885 8.44891 13.8885C11.8025 13.8885 14.5211 11.1699 14.5211 7.81631C14.5211 4.46271 11.8025 1.74407 8.44891 1.74407C5.09531 1.74407 2.37667 4.46271 2.37667 7.81631Z" fill="currentColor"/>
<path d="M16.652 17.1431C16.8888 17.3799 17.2728 17.3799 17.5096 17.1431C17.7464 16.9063 17.7464 16.5223 17.5096 16.2855L16.652 17.1431ZM13.2236 12.8571L12.7948 13.2859L16.652 17.1431L17.0808 16.7143L17.5096 16.2855L13.6524 12.4283L13.2236 12.8571Z" fill="currentColor"/>
</svg>
