<svg width="18" height="18" viewBox="0 0 18 18" fill="none" xmlns="http://www.w3.org/2000/svg">
<path d="M16.4361 17.2308C16.4361 15.2589 15.6528 13.3679 14.2585 11.9735C12.8642 10.5792 10.9731 9.79593 9.00126 9.79593C7.02941 9.79593 5.13833 10.5792 3.74402 11.9735C2.34972 13.3679 1.56641 15.2589 1.56641 17.2308L1.58703 17.2308C1.58703 15.2644 2.36817 13.3786 3.7586 11.9881C5.14904 10.5977 7.03488 9.81655 9.00126 9.81655C10.9676 9.81655 12.8535 10.5977 14.2439 11.9881C15.6343 13.3786 16.4155 15.2644 16.4155 17.2308H16.4361Z" stroke="currentColor" stroke-width="1.23914" stroke-linejoin="round"/>
<mask id="path-2-inside-1_368_15443" fill="white">
<path d="M13.4801 4.99007C13.4801 7.38533 11.5384 9.32707 9.14315 9.32707C6.74789 9.32707 4.80615 7.38533 4.80615 4.99007C4.80615 2.59482 6.74789 0.653076 9.14315 0.653076C11.5384 0.653076 13.4801 2.59482 13.4801 4.99007ZM6.07745 4.99007C6.07745 6.68321 7.45001 8.05577 9.14315 8.05577C10.8363 8.05577 12.2088 6.68321 12.2088 4.99007C12.2088 3.29693 10.8363 1.92437 9.14315 1.92437C7.45001 1.92437 6.07745 3.29693 6.07745 4.99007Z"/>
</mask>
<path d="M13.4801 4.99007C13.4801 7.38533 11.5384 9.32707 9.14315 9.32707C6.74789 9.32707 4.80615 7.38533 4.80615 4.99007C4.80615 2.59482 6.74789 0.653076 9.14315 0.653076C11.5384 0.653076 13.4801 2.59482 13.4801 4.99007ZM6.07745 4.99007C6.07745 6.68321 7.45001 8.05577 9.14315 8.05577C10.8363 8.05577 12.2088 6.68321 12.2088 4.99007C12.2088 3.29693 10.8363 1.92437 9.14315 1.92437C7.45001 1.92437 6.07745 3.29693 6.07745 4.99007Z" stroke="currentColor" stroke-width="2.47828" mask="url(#path-2-inside-1_368_15443)"/>
</svg>
