<svg width="10" height="10" viewBox="0 0 10 10" fill="none" xmlns="http://www.w3.org/2000/svg">
<path d="M8.93083 5.30933L5.00429 9.28578L1.07776 5.30933C0.818765 5.05163 0.614761 4.74189 0.478591 4.39961C0.342422 4.05733 0.277037 3.68993 0.286552 3.32054C0.296068 2.95115 0.380279 2.58778 0.533882 2.2533C0.687485 1.91882 0.907153 1.62049 1.17905 1.37709C1.45095 1.13369 1.7692 0.950489 2.11374 0.839028C2.45828 0.727568 2.82166 0.690261 3.181 0.729457C3.54034 0.768652 3.88785 0.883501 4.20164 1.06677C4.51544 1.25004 4.78872 1.49777 5.00429 1.79434C5.22079 1.49992 5.4944 1.25436 5.80798 1.07303C6.12156 0.891709 6.46836 0.778519 6.82669 0.740548C7.18502 0.702577 7.54716 0.740643 7.89044 0.852364C8.23372 0.964084 8.55075 1.14705 8.8217 1.38982C9.09264 1.63259 9.31166 1.92993 9.46506 2.26323C9.61845 2.59654 9.70291 2.95863 9.71316 3.32684C9.7234 3.69506 9.65921 4.06147 9.52459 4.40315C9.38998 4.74483 9.18784 5.05442 8.93083 5.31255" fill="#64759B"/>
<path d="M8.93083 5.30933L5.00429 9.28578L1.07776 5.30933C0.818765 5.05163 0.614761 4.74189 0.478591 4.39961C0.342422 4.05733 0.277037 3.68993 0.286552 3.32054C0.296068 2.95115 0.380279 2.58778 0.533882 2.2533C0.687485 1.91882 0.907153 1.62049 1.17905 1.37709C1.45095 1.13369 1.7692 0.950489 2.11374 0.839028C2.45828 0.727568 2.82166 0.690261 3.181 0.729457C3.54034 0.768652 3.88785 0.883501 4.20164 1.06677C4.51544 1.25004 4.78872 1.49777 5.00429 1.79434C5.22079 1.49992 5.4944 1.25436 5.80798 1.07303C6.12156 0.891709 6.46836 0.778519 6.82669 0.740548C7.18502 0.702577 7.54716 0.740643 7.89044 0.852364C8.23372 0.964084 8.55075 1.14705 8.8217 1.38982C9.09264 1.63259 9.31166 1.92993 9.46506 2.26323C9.61845 2.59654 9.70291 2.95863 9.71316 3.32684C9.7234 3.69506 9.65921 4.06147 9.52459 4.40315C9.38998 4.74483 9.18784 5.05442 8.93083 5.31255" stroke="#64759B" stroke-width="0.397217" stroke-linecap="round" stroke-linejoin="round"/>
</svg>
