<svg width="151" height="151" viewBox="0 0 151 151" fill="none" xmlns="http://www.w3.org/2000/svg">
<circle cx="75.8364" cy="75.5" r="73.875" fill="white" stroke="#3A4C79" stroke-width="2.25" stroke-miterlimit="2.9238" stroke-linecap="round" stroke-linejoin="round" stroke-dasharray="15 15"/>
<path d="M132.101 96.2942C120.616 127.368 86.116 143.248 55.0422 131.764C23.9684 120.28 8.08803 85.7796 19.5723 54.7058C31.0567 23.632 65.5568 7.75161 96.6306 19.2359C127.704 30.7202 143.585 65.2204 132.101 96.2942Z" fill="#3A4C79"/>
<path d="M33.8364 63.2948V54.9964C33.8364 54.8231 33.895 54.6743 34.0121 54.5498C34.1292 54.4254 34.2724 54.3632 34.4416 54.3632H42.8878C43.057 54.3632 43.2001 54.4254 43.3173 54.5498C43.4387 54.6743 43.4995 54.8231 43.4995 54.9964V63.2948C43.4995 63.4681 43.4366 63.6169 43.3107 63.7414C43.1893 63.8613 43.044 63.9213 42.8748 63.9213H41.6645C41.4953 63.9213 41.3499 63.8613 41.2285 63.7414C41.107 63.6169 41.0463 63.4681 41.0463 63.2948V56.2495H36.2896V63.2948C36.2896 63.4681 36.2289 63.6169 36.1074 63.7414C35.9903 63.8613 35.8471 63.9213 35.6779 63.9213H34.4546C34.2854 63.9213 34.1401 63.8613 34.0186 63.7414C33.8972 63.6169 33.8364 63.4681 33.8364 63.2948Z" fill="white"/>
<path d="M45.8355 63.0815C45.1674 62.4327 44.8334 61.4996 44.8334 60.282C44.8334 59.0601 45.1696 58.1225 45.842 57.4693C46.5144 56.8116 47.4471 56.4828 48.6401 56.4828C49.833 56.4828 50.7635 56.8027 51.4316 57.4426C52.0997 58.078 52.4337 58.9912 52.4337 60.1821V60.562C52.4337 60.682 52.3946 60.7819 52.3166 60.8619C52.2428 60.9375 52.1474 60.9752 52.0302 60.9752H47.1304C47.1738 61.5218 47.3256 61.9195 47.5859 62.1683C47.8505 62.4172 48.2713 62.5416 48.8483 62.5416C49.4252 62.5416 49.82 62.4083 50.0326 62.1417C50.2451 61.8751 50.5076 61.7395 50.8199 61.7351H51.7895C51.9066 61.7351 52.002 61.7751 52.0758 61.8551C52.1539 61.9306 52.1929 62.0284 52.1929 62.1483C52.1929 63.4236 51.0065 64.0591 48.6335 64.0546C47.4362 64.0546 46.5036 63.7303 45.8355 63.0815ZM47.1174 59.5689H50.1432C50.0998 58.5202 49.5966 57.9958 48.6335 57.9958C47.6748 57.9958 47.1694 58.5202 47.1174 59.5689Z" fill="white"/>
<path d="M53.631 65.761V57.0294C53.631 56.9094 53.6679 56.8116 53.7416 56.7361C53.8197 56.6561 53.9151 56.6161 54.0279 56.6161H55.2838C55.3966 56.6161 55.4898 56.6561 55.5636 56.7361C55.6417 56.8116 55.6807 56.9094 55.6807 57.0294V57.2293C56.3661 56.7316 57.1622 56.4828 58.0688 56.4828C58.9755 56.4828 59.7325 56.8116 60.3398 57.4693C60.9471 58.1225 61.2508 59.0601 61.2508 60.282C61.2508 61.4996 60.9363 62.4327 60.3073 63.0815C59.6782 63.7303 58.8302 64.0546 57.763 64.0546C57.2121 64.0546 56.5852 63.9413 55.8824 63.7147V65.761C55.8824 65.8809 55.8434 65.9787 55.7653 66.0542C55.6916 66.1342 55.5983 66.1742 55.4855 66.1742H54.0279C53.9151 66.1742 53.8197 66.1342 53.7416 66.0542C53.6679 65.9787 53.631 65.8809 53.631 65.761ZM55.8824 62.175C56.4421 62.3572 56.9127 62.4483 57.2945 62.4483C57.8888 62.4483 58.3096 62.275 58.5569 61.9284C58.8085 61.5818 58.9343 61.0286 58.9343 60.2687C58.9343 59.5089 58.815 58.9579 58.5764 58.6157C58.3421 58.2691 57.9886 58.0958 57.5157 58.0958C57.0472 58.0958 56.5028 58.2958 55.8824 58.6957V62.175Z" fill="white"/>
<path d="M63.0533 63.0815C62.3852 62.4327 62.0512 61.4996 62.0512 60.282C62.0512 59.0601 62.3874 58.1225 63.0598 57.4693C63.7322 56.8116 64.6648 56.4828 65.8578 56.4828C67.0508 56.4828 67.9813 56.8027 68.6493 57.4426C69.3174 58.078 69.6514 58.9912 69.6514 60.1821V60.562C69.6514 60.682 69.6124 60.7819 69.5343 60.8619C69.4606 60.9375 69.3651 60.9752 69.248 60.9752H64.3482C64.3915 61.5218 64.5434 61.9195 64.8037 62.1683C65.0683 62.4172 65.4891 62.5416 66.066 62.5416C66.643 62.5416 67.0378 62.4083 67.2503 62.1417C67.4629 61.8751 67.7253 61.7395 68.0377 61.7351H69.0072C69.1244 61.7351 69.2198 61.7751 69.2935 61.8551C69.3716 61.9306 69.4107 62.0284 69.4107 62.1483C69.4107 63.4236 68.2242 64.0591 65.8513 64.0546C64.654 64.0546 63.7213 63.7303 63.0533 63.0815ZM64.3351 59.5689H67.3609C67.3176 58.5202 66.8144 57.9958 65.8513 57.9958C64.8926 57.9958 64.3872 58.5202 64.3351 59.5689Z" fill="white"/>
<path d="M70.8487 63.5147V57.0294C70.8487 56.9094 70.8856 56.8116 70.9594 56.7361C71.0374 56.6561 71.1329 56.6161 71.2457 56.6161H72.6057C72.7228 56.6161 72.8182 56.6561 72.892 56.7361C72.9701 56.8116 73.0091 56.9094 73.0091 57.0294V61.4085L75.2996 57.096C75.369 56.9583 75.4753 56.8449 75.6184 56.7561C75.7616 56.6628 75.9004 56.6161 76.0349 56.6161H77.8569C77.974 56.6161 78.0694 56.6561 78.1432 56.7361C78.2213 56.8116 78.2603 56.9094 78.2603 57.0294V63.5147C78.2603 63.6347 78.2213 63.7325 78.1432 63.808C78.0694 63.8836 77.974 63.9213 77.8569 63.9213H76.4969C76.3798 63.9213 76.2843 63.8836 76.2106 63.808C76.1368 63.728 76.1 63.6303 76.1 63.5147V59.1423L73.8095 63.4414C73.7401 63.5703 73.6338 63.6836 73.4906 63.7814C73.3475 63.8747 73.2086 63.9213 73.0742 63.9213H71.2457C71.1285 63.9213 71.0331 63.8836 70.9594 63.808C70.8856 63.7325 70.8487 63.6347 70.8487 63.5147ZM72.3649 54.0899C72.3649 53.8633 72.4864 53.75 72.7293 53.75H73.2173C73.4299 53.75 73.5817 53.8633 73.6728 54.0899C73.816 54.4543 74.1088 54.6365 74.5513 54.6365C74.9981 54.6365 75.2909 54.4543 75.4297 54.0899C75.5165 53.8633 75.6683 53.75 75.8852 53.75H76.3798C76.6184 53.75 76.7377 53.8633 76.7377 54.0899C76.7377 54.6098 76.5359 55.0364 76.1325 55.3697C75.7291 55.7029 75.202 55.8696 74.5513 55.8696C73.9049 55.8696 73.3778 55.7029 72.9701 55.3697C72.5666 55.0364 72.3649 54.6098 72.3649 54.0899Z" fill="white"/>
<path d="M79.1843 57.8225V57.0294C79.1843 56.9094 79.2212 56.8116 79.2949 56.7361C79.373 56.6561 79.4706 56.6161 79.5878 56.6161H85.9972C86.1144 56.6161 86.2098 56.6561 86.2836 56.7361C86.3573 56.8116 86.3942 56.9094 86.3942 57.0294V57.8225C86.3942 57.9381 86.3573 58.0358 86.2836 58.1158C86.2098 58.1913 86.1144 58.2291 85.9972 58.2291H83.9215V63.5147C83.9215 63.6303 83.8824 63.728 83.8044 63.808C83.7306 63.8836 83.6352 63.9213 83.518 63.9213H82.067C81.9498 63.9213 81.8522 63.8836 81.7741 63.808C81.7004 63.728 81.6635 63.6303 81.6635 63.5147V58.2291H79.5878C79.4706 58.2291 79.373 58.1913 79.2949 58.1158C79.2212 58.0358 79.1843 57.9381 79.1843 57.8225Z" fill="white"/>
<path d="M87.3377 63.5147V57.0294C87.3377 56.9094 87.3746 56.8116 87.4483 56.7361C87.5264 56.6561 87.6218 56.6161 87.7346 56.6161H89.0946C89.2117 56.6161 89.3072 56.6561 89.3809 56.7361C89.459 56.8116 89.4981 56.9094 89.4981 57.0294V61.4085L91.7886 57.096C91.858 56.9583 91.9642 56.8449 92.1074 56.7561C92.2506 56.6628 92.3894 56.6161 92.5239 56.6161H94.3458C94.463 56.6161 94.5584 56.6561 94.6322 56.7361C94.7102 56.8116 94.7493 56.9094 94.7493 57.0294V63.5147C94.7493 63.6347 94.7102 63.7325 94.6322 63.808C94.5584 63.8836 94.463 63.9213 94.3458 63.9213H92.9859C92.8687 63.9213 92.7733 63.8836 92.6995 63.808C92.6258 63.728 92.5889 63.6303 92.5889 63.5147V59.1423L90.2984 63.4414C90.229 63.5703 90.1227 63.6836 89.9796 63.7814C89.8364 63.8747 89.6976 63.9213 89.5631 63.9213H87.7346C87.6175 63.9213 87.5221 63.8836 87.4483 63.808C87.3746 63.7325 87.3377 63.6347 87.3377 63.5147Z" fill="white"/>
<path d="M100.345 63.5147V62.7216C100.345 62.6016 100.382 62.5038 100.456 62.4283C100.534 62.3483 100.632 62.3083 100.749 62.3083H101.256L102.148 58.6357C102.478 57.2893 103.566 56.6161 105.414 56.6161H108.369C108.486 56.6161 108.581 56.6561 108.655 56.7361C108.733 56.8116 108.772 56.9094 108.772 57.0294V63.5147C108.772 63.6303 108.733 63.728 108.655 63.808C108.581 63.8836 108.486 63.9213 108.369 63.9213H100.749C100.632 63.9213 100.534 63.8836 100.456 63.808C100.382 63.728 100.345 63.6303 100.345 63.5147ZM103.384 62.3083H106.521V58.2291H105.343C104.714 58.2291 104.315 58.5557 104.146 59.2089L103.384 62.3083Z" fill="white"/>
<path d="M110.984 63.0948C110.308 62.4549 109.969 61.5129 109.969 60.2687C109.969 59.0201 110.308 58.078 110.984 57.4426C111.661 56.8027 112.633 56.4828 113.9 56.4828C115.171 56.4828 116.145 56.8027 116.821 57.4426C117.498 58.078 117.836 59.0201 117.836 60.2687C117.836 61.5129 117.498 62.4549 116.821 63.0948C116.145 63.7347 115.171 64.0546 113.9 64.0546C112.633 64.0546 111.661 63.7347 110.984 63.0948ZM112.631 58.5357C112.362 58.8957 112.227 59.4711 112.227 60.262C112.227 61.053 112.362 61.6307 112.631 61.995C112.9 62.3594 113.323 62.5416 113.9 62.5416C114.481 62.5416 114.906 62.3594 115.175 61.995C115.448 61.6307 115.585 61.053 115.585 60.262C115.585 59.4711 115.448 58.8957 115.175 58.5357C114.906 58.1758 114.481 57.9958 113.9 57.9958C113.323 57.9958 112.9 58.1758 112.631 58.5357Z" fill="white"/>
<path d="M48.7442 80.9572V74.4718C48.7442 74.3519 48.781 74.2541 48.8548 74.1786C48.9329 74.0986 49.0283 74.0586 49.1411 74.0586H55.7002C55.8174 74.0586 55.9128 74.0986 55.9866 74.1786C56.0603 74.2541 56.0972 74.3519 56.0972 74.4718V80.9572C56.0972 81.0772 56.0603 81.175 55.9866 81.2505C55.9128 81.326 55.8174 81.3638 55.7002 81.3638H54.2492C54.132 81.3638 54.0344 81.326 53.9563 81.2505C53.8826 81.1705 53.8457 81.0728 53.8457 80.9572V75.6716H50.9956V80.9572C50.9956 81.0772 50.9566 81.175 50.8785 81.2505C50.8047 81.326 50.7115 81.3638 50.5987 81.3638H49.1411C49.024 81.3638 48.9285 81.326 48.8548 81.2505C48.781 81.175 48.7442 81.0772 48.7442 80.9572Z" fill="white"/>
<path d="M58.3096 80.5373C57.6328 79.8974 57.2945 78.9554 57.2945 77.7112C57.2945 76.4626 57.6328 75.5205 58.3096 74.8851C58.9863 74.2452 59.958 73.9253 61.2248 73.9253C62.4958 73.9253 63.4697 74.2452 64.1464 74.8851C64.8232 75.5205 65.1615 76.4626 65.1615 77.7112C65.1615 78.9554 64.8232 79.8974 64.1464 80.5373C63.4697 81.1772 62.4958 81.4971 61.2248 81.4971C59.958 81.4971 58.9863 81.1772 58.3096 80.5373ZM59.9559 75.9782C59.6869 76.3381 59.5524 76.9136 59.5524 77.7045C59.5524 78.4955 59.6869 79.0731 59.9559 79.4375C60.2248 79.8019 60.6478 79.9841 61.2248 79.9841C61.8061 79.9841 62.2312 79.8019 62.5002 79.4375C62.7734 79.0731 62.9101 78.4955 62.9101 77.7045C62.9101 76.9136 62.7734 76.3381 62.5002 75.9782C62.2312 75.6183 61.8061 75.4383 61.2248 75.4383C60.6478 75.4383 60.2248 75.6183 59.9559 75.9782Z" fill="white"/>
<path d="M73.5557 81.0705C73.5557 81.266 73.4429 81.3638 73.2173 81.3638H71.9875C71.571 81.3638 71.2392 81.155 70.9919 80.7373L70.1655 79.3575C69.8098 78.7665 69.2935 78.471 68.6168 78.471V80.9572C68.6168 81.0772 68.5778 81.175 68.4997 81.2505C68.4259 81.326 68.3327 81.3638 68.2199 81.3638H66.7623C66.6452 81.3638 66.5497 81.326 66.476 81.2505C66.4022 81.175 66.3654 81.0772 66.3654 80.9572V74.4718C66.3654 74.3519 66.4022 74.2541 66.476 74.1786C66.5541 74.0986 66.6495 74.0586 66.7623 74.0586H68.2199C68.337 74.0586 68.4324 74.0986 68.5062 74.1786C68.5799 74.2541 68.6168 74.3519 68.6168 74.4718V76.9513C69.3716 76.9513 69.8879 76.6514 70.1655 76.0515L70.7902 74.6918C70.8769 74.5007 71.0049 74.3474 71.1741 74.2319C71.3433 74.1163 71.5255 74.0586 71.7207 74.0586H72.9505C73.1674 74.0586 73.2759 74.1452 73.2759 74.3185C73.2759 74.4163 73.2412 74.5407 73.1718 74.6918L72.3324 76.5048C72.1892 76.8069 71.994 77.0669 71.7467 77.2846C71.4995 77.5023 71.2327 77.6423 70.9464 77.7045C71.4799 77.8689 71.9419 78.2689 72.3324 78.9043L73.4386 80.7373C73.5123 80.8661 73.5514 80.9772 73.5557 81.0705Z" fill="white"/>
<path d="M75.8852 82.057L76.7377 82.1703C77.3493 82.1703 77.7766 81.7104 78.0196 80.7906C77.2821 80.7906 76.6661 80.564 76.1715 80.1107C75.677 79.653 75.2519 78.8421 74.8962 77.6779L73.9266 74.4585C73.9136 74.423 73.9071 74.383 73.9071 74.3385C73.9071 74.2896 73.9331 74.2319 73.9852 74.1652C74.0416 74.0986 74.124 74.063 74.2324 74.0586H75.5924C75.7182 74.0586 75.8375 74.103 75.9503 74.1919C76.0674 74.2763 76.1433 74.383 76.1781 74.5118L77.0305 77.3379C77.243 78.0311 77.4578 78.511 77.6747 78.7776C77.8959 79.0443 78.1562 79.1776 78.4555 79.1776L79.7504 74.5118C79.7851 74.383 79.8524 74.2763 79.9522 74.1919C80.0563 74.103 80.1712 74.0586 80.297 74.0586H81.67C81.7785 74.0586 81.8587 74.0941 81.9108 74.1652C81.9629 74.2363 81.9889 74.2963 81.9889 74.3452C81.9889 74.3896 81.9845 74.4274 81.9759 74.4585L80.271 80.6839C79.9673 81.7859 79.5899 82.5725 79.1388 83.0435C78.692 83.5145 78.115 83.75 77.4079 83.75C76.7008 83.75 76.1997 83.7233 75.9048 83.67C75.6141 83.6167 75.4319 83.55 75.3582 83.4701C75.2844 83.3945 75.2475 83.3056 75.2475 83.2034V82.4703C75.2475 82.3503 75.2844 82.2503 75.3582 82.1703C75.4319 82.0948 75.5273 82.057 75.6445 82.057H75.8852Z" fill="white"/>
<path d="M82.9194 80.9572V74.4718C82.9194 74.3519 82.9563 74.2541 83.03 74.1786C83.1081 74.0986 83.2035 74.0586 83.3163 74.0586H89.8755C89.9926 74.0586 90.088 74.0986 90.1618 74.1786C90.2355 74.2541 90.2724 74.3519 90.2724 74.4718V80.9572C90.2724 81.0772 90.2355 81.175 90.1618 81.2505C90.088 81.326 89.9926 81.3638 89.8755 81.3638H88.4244C88.3073 81.3638 88.2097 81.326 88.1316 81.2505C88.0578 81.1705 88.021 81.0728 88.021 80.9572V75.6716H85.1708V80.9572C85.1708 81.0772 85.1318 81.175 85.0537 81.2505C84.98 81.326 84.8867 81.3638 84.7739 81.3638H83.3163C83.1992 81.3638 83.1038 81.326 83.03 81.2505C82.9563 81.175 82.9194 81.0772 82.9194 80.9572Z" fill="white"/>
<path d="M92.4848 80.5373C91.8081 79.8974 91.4697 78.9554 91.4697 77.7112C91.4697 76.4626 91.8081 75.5205 92.4848 74.8851C93.1615 74.2452 94.1333 73.9253 95.4 73.9253C96.671 73.9253 97.6449 74.2452 98.3217 74.8851C98.9984 75.5205 99.3368 76.4626 99.3368 77.7112C99.3368 78.9554 98.9984 79.8974 98.3217 80.5373C97.6449 81.1772 96.671 81.4971 95.4 81.4971C94.1333 81.4971 93.1615 81.1772 92.4848 80.5373ZM94.1311 75.9782C93.8621 76.3381 93.7277 76.9136 93.7277 77.7045C93.7277 78.4955 93.8621 79.0731 94.1311 79.4375C94.4001 79.8019 94.823 79.9841 95.4 79.9841C95.9813 79.9841 96.4064 79.8019 96.6754 79.4375C96.9487 79.0731 97.0853 78.4955 97.0853 77.7045C97.0853 76.9136 96.9487 76.3381 96.6754 75.9782C96.4064 75.6183 95.9813 75.4383 95.4 75.4383C94.823 75.4383 94.4001 75.6183 94.1311 75.9782Z" fill="white"/>
<path d="M107.731 81.0705C107.731 81.266 107.618 81.3638 107.393 81.3638H106.163C105.746 81.3638 105.414 81.155 105.167 80.7373L104.341 79.3575C103.985 78.7665 103.469 78.471 102.792 78.471V80.9572C102.792 81.0772 102.753 81.175 102.675 81.2505C102.601 81.326 102.508 81.3638 102.395 81.3638H100.938C100.82 81.3638 100.725 81.326 100.651 81.2505C100.577 81.175 100.541 81.0772 100.541 80.9572V74.4718C100.541 74.3519 100.577 74.2541 100.651 74.1786C100.729 74.0986 100.825 74.0586 100.938 74.0586H102.395C102.512 74.0586 102.608 74.0986 102.681 74.1786C102.755 74.2541 102.792 74.3519 102.792 74.4718V76.9513C103.547 76.9513 104.063 76.6514 104.341 76.0515L104.965 74.6918C105.052 74.5007 105.18 74.3474 105.349 74.2319C105.519 74.1163 105.701 74.0586 105.896 74.0586H107.126C107.343 74.0586 107.451 74.1452 107.451 74.3185C107.451 74.4163 107.416 74.5407 107.347 74.6918L106.508 76.5048C106.364 76.8069 106.169 77.0669 105.922 77.2846C105.675 77.5023 105.408 77.6423 105.122 77.7045C105.655 77.8689 106.117 78.2689 106.508 78.9043L107.614 80.7373C107.688 80.8661 107.727 80.9772 107.731 81.0705Z" fill="white"/>
<path d="M75.8364 91.25V112.25M75.8364 112.25L69.0864 103.85M75.8364 112.25L82.5864 103.85" stroke="white" stroke-width="1.5" stroke-linecap="round" stroke-linejoin="round"/>
</svg>
