<svg width="159" height="12" viewBox="0 0 159 12" fill="none" xmlns="http://www.w3.org/2000/svg">
<path d="M0 11.8333V0.166666H5.52199C6.93616 0.166666 8.01362 0.444444 8.75437 1C9.49513 1.54444 9.8655 2.27778 9.8655 3.2C9.8655 3.82222 9.7196 4.35556 9.42779 4.8C9.13597 5.23333 8.74315 5.57222 8.24931 5.81667C7.7667 6.05 7.23919 6.16667 6.66679 6.16667L6.96983 5.56667C7.63202 5.56667 8.22687 5.68889 8.75437 5.93333C9.28188 6.16667 9.69715 6.51111 10.0002 6.96667C10.3144 7.42222 10.4716 7.98889 10.4716 8.66667C10.4716 9.66667 10.0844 10.4444 9.30994 11C8.53551 11.5556 7.3851 11.8333 5.8587 11.8333H0ZM2.18859 10.1333H5.72401C6.54333 10.1333 7.17185 10 7.60957 9.73333C8.04729 9.46667 8.26615 9.03889 8.26615 8.45C8.26615 7.87222 8.04729 7.45 7.60957 7.18333C7.17185 6.90556 6.54333 6.76667 5.72401 6.76667H2.02024V5.08333H5.28629C6.0495 5.08333 6.63312 4.95 7.03717 4.68333C7.45244 4.41667 7.66008 4.01667 7.66008 3.48333C7.66008 2.93889 7.45244 2.53333 7.03717 2.26667C6.63312 2 6.0495 1.86667 5.28629 1.86667H2.18859V10.1333Z" fill="#8F49A3"/>
<path d="M14.8276 5.01667H20.6863V6.8H14.8276V5.01667ZM14.9959 10.0167H21.6459V11.8333H12.8073V0.166666H21.4102V1.98333H14.9959V10.0167Z" fill="#8F49A3"/>
<path d="M22.419 11.8333L27.7221 0.166666H29.8771L35.197 11.8333H32.9074L28.345 1.31667H29.2205L24.6749 11.8333H22.419ZM24.8601 9.13333L25.4494 7.43333H31.8131L32.4024 9.13333H24.8601Z" fill="#8F49A3"/>
<path d="M41.5166 12C39.9004 12 38.6321 11.55 37.7118 10.65C36.8027 9.75 36.3481 8.45 36.3481 6.75V0.166666H38.5367V6.66667C38.5367 7.86667 38.7949 8.73889 39.3112 9.28333C39.8387 9.82778 40.5794 10.1 41.5334 10.1C42.4874 10.1 43.2226 9.82778 43.7388 9.28333C44.2551 8.73889 44.5133 7.86667 44.5133 6.66667V0.166666H46.6682V6.75C46.6682 8.45 46.208 9.75 45.2877 10.65C44.3786 11.55 43.1216 12 41.5166 12Z" fill="#8F49A3"/>
<path d="M51.9102 11.8333V2H48.0044V0.166666H58.0046V2H54.0988V11.8333H51.9102Z" fill="#8F49A3"/>
<path d="M62.3619 11.8333V7.21667L62.8501 8.55L57.7322 0.166666H60.0723L64.1801 6.91667H62.8669L67.0084 0.166666H69.1634L64.0454 8.55L64.5505 7.21667V11.8333H62.3619Z" fill="#8F49A3"/>
<path d="M73.9128 11.8333V0.166666H79.4348C80.8489 0.166666 81.9264 0.444444 82.6672 1C83.4079 1.54444 83.7783 2.27778 83.7783 3.2C83.7783 3.82222 83.6324 4.35556 83.3406 4.8C83.0488 5.23333 82.6559 5.57222 82.1621 5.81667C81.6795 6.05 81.152 6.16667 80.5796 6.16667L80.8826 5.56667C81.5448 5.56667 82.1397 5.68889 82.6672 5.93333C83.1947 6.16667 83.6099 6.51111 83.913 6.96667C84.2272 7.42222 84.3844 7.98889 84.3844 8.66667C84.3844 9.66667 83.9971 10.4444 83.2227 11C82.4483 11.5556 81.2979 11.8333 79.7715 11.8333H73.9128ZM76.1014 10.1333H79.6368C80.4561 10.1333 81.0846 10 81.5224 9.73333C81.9601 9.46667 82.1789 9.03889 82.1789 8.45C82.1789 7.87222 81.9601 7.45 81.5224 7.18333C81.0846 6.90556 80.4561 6.76667 79.6368 6.76667H75.933V5.08333H79.1991C79.9623 5.08333 80.5459 4.95 80.95 4.68333C81.3652 4.41667 81.5729 4.01667 81.5729 3.48333C81.5729 2.93889 81.3652 2.53333 80.95 2.26667C80.5459 2 79.9623 1.86667 79.1991 1.86667H76.1014V10.1333Z" fill="#DF4DA0"/>
<path d="M86.7201 11.8333V0.166666H88.9087V10H95.0705V11.8333H86.7201Z" fill="#DF4DA0"/>
<path d="M102.107 12C101.186 12 100.339 11.85 99.5644 11.55C98.79 11.25 98.1166 10.8333 97.5442 10.3C96.9718 9.75556 96.5285 9.12222 96.2142 8.4C95.8999 7.66667 95.7428 6.86667 95.7428 6C95.7428 5.13333 95.8999 4.33889 96.2142 3.61667C96.5285 2.88333 96.9718 2.25 97.5442 1.71667C98.1166 1.17222 98.79 0.75 99.5644 0.45C100.339 0.15 101.181 0 102.09 0C103.01 0 103.852 0.15 104.615 0.45C105.389 0.75 106.063 1.17222 106.635 1.71667C107.208 2.25 107.651 2.88333 107.965 3.61667C108.28 4.33889 108.437 5.13333 108.437 6C108.437 6.86667 108.28 7.66667 107.965 8.4C107.651 9.13333 107.208 9.76667 106.635 10.3C106.063 10.8333 105.389 11.25 104.615 11.55C103.852 11.85 103.016 12 102.107 12ZM102.09 10.1C102.685 10.1 103.235 10 103.74 9.8C104.245 9.6 104.682 9.31667 105.053 8.95C105.423 8.57222 105.709 8.13889 105.911 7.65C106.125 7.15 106.231 6.6 106.231 6C106.231 5.4 106.125 4.85556 105.911 4.36667C105.709 3.86667 105.423 3.43333 105.053 3.06667C104.682 2.68889 104.245 2.4 103.74 2.2C103.235 2 102.685 1.9 102.09 1.9C101.495 1.9 100.945 2 100.44 2.2C99.946 2.4 99.5083 2.68889 99.1267 3.06667C98.7563 3.43333 98.4645 3.86667 98.2513 4.36667C98.0493 4.85556 97.9482 5.4 97.9482 6C97.9482 6.58889 98.0493 7.13333 98.2513 7.63333C98.4645 8.13333 98.7563 8.57222 99.1267 8.95C99.4971 9.31667 99.9348 9.6 100.44 9.8C100.945 10 101.495 10.1 102.09 10.1Z" fill="#DF4DA0"/>
<path d="M114.41 12C113.489 12 112.608 11.8722 111.767 11.6167C110.925 11.35 110.257 11.0111 109.763 10.6L110.521 8.91667C110.992 9.28333 111.576 9.58889 112.272 9.83333C112.968 10.0778 113.68 10.2 114.41 10.2C115.027 10.2 115.527 10.1333 115.908 10C116.29 9.86667 116.57 9.68889 116.75 9.46667C116.929 9.23333 117.019 8.97222 117.019 8.68333C117.019 8.32778 116.89 8.04444 116.632 7.83333C116.374 7.61111 116.037 7.43889 115.622 7.31667C115.218 7.18333 114.763 7.06111 114.258 6.95C113.764 6.83889 113.265 6.71111 112.76 6.56667C112.266 6.41111 111.812 6.21667 111.396 5.98333C110.992 5.73889 110.661 5.41667 110.403 5.01667C110.145 4.61667 110.016 4.10556 110.016 3.48333C110.016 2.85 110.184 2.27222 110.521 1.75C110.869 1.21667 111.391 0.794444 112.087 0.483333C112.794 0.161111 113.686 0 114.763 0C115.47 0 116.172 0.088889 116.868 0.266667C117.564 0.444445 118.17 0.7 118.686 1.03333L117.996 2.71667C117.468 2.40556 116.924 2.17778 116.363 2.03333C115.801 1.87778 115.263 1.8 114.746 1.8C114.14 1.8 113.647 1.87222 113.265 2.01667C112.895 2.16111 112.62 2.35 112.44 2.58333C112.272 2.81667 112.188 3.08333 112.188 3.38333C112.188 3.73889 112.311 4.02778 112.558 4.25C112.816 4.46111 113.147 4.62778 113.551 4.75C113.966 4.87222 114.427 4.99444 114.932 5.11667C115.437 5.22778 115.936 5.35556 116.43 5.5C116.935 5.64444 117.39 5.83333 117.794 6.06667C118.209 6.3 118.54 6.61667 118.787 7.01667C119.045 7.41667 119.174 7.92222 119.174 8.53333C119.174 9.15555 119 9.73333 118.652 10.2667C118.316 10.7889 117.794 11.2111 117.087 11.5333C116.38 11.8444 115.487 12 114.41 12Z" fill="#DF4DA0"/>
<path d="M124.998 12C124.077 12 123.196 11.8722 122.354 11.6167C121.513 11.35 120.845 11.0111 120.351 10.6L121.109 8.91667C121.58 9.28333 122.164 9.58889 122.86 9.83333C123.555 10.0778 124.268 10.2 124.998 10.2C125.615 10.2 126.114 10.1333 126.496 10C126.878 9.86667 127.158 9.68889 127.338 9.46667C127.517 9.23333 127.607 8.97222 127.607 8.68333C127.607 8.32778 127.478 8.04444 127.22 7.83333C126.962 7.61111 126.625 7.43889 126.21 7.31667C125.806 7.18333 125.351 7.06111 124.846 6.95C124.352 6.83889 123.853 6.71111 123.348 6.56667C122.854 6.41111 122.399 6.21667 121.984 5.98333C121.58 5.73889 121.249 5.41667 120.991 5.01667C120.733 4.61667 120.604 4.10556 120.604 3.48333C120.604 2.85 120.772 2.27222 121.109 1.75C121.457 1.21667 121.978 0.794444 122.674 0.483333C123.381 0.161111 124.274 0 125.351 0C126.058 0 126.76 0.088889 127.456 0.266667C128.151 0.444445 128.758 0.7 129.274 1.03333L128.584 2.71667C128.056 2.40556 127.512 2.17778 126.951 2.03333C126.389 1.87778 125.851 1.8 125.334 1.8C124.728 1.8 124.234 1.87222 123.853 2.01667C123.482 2.16111 123.207 2.35 123.028 2.58333C122.86 2.81667 122.775 3.08333 122.775 3.38333C122.775 3.73889 122.899 4.02778 123.146 4.25C123.404 4.46111 123.735 4.62778 124.139 4.75C124.554 4.87222 125.014 4.99444 125.52 5.11667C126.025 5.22778 126.524 5.35556 127.018 5.5C127.523 5.64444 127.977 5.83333 128.382 6.06667C128.797 6.3 129.128 6.61667 129.375 7.01667C129.633 7.41667 129.762 7.92222 129.762 8.53333C129.762 9.15555 129.588 9.73333 129.24 10.2667C128.903 10.7889 128.382 11.2111 127.674 11.5333C126.967 11.8444 126.075 12 124.998 12Z" fill="#DF4DA0"/>
<path d="M137.454 12C136.534 12 135.686 11.85 134.912 11.55C134.138 11.25 133.464 10.8333 132.892 10.3C132.319 9.75556 131.876 9.12222 131.562 8.4C131.248 7.66667 131.09 6.86667 131.09 6C131.09 5.13333 131.248 4.33889 131.562 3.61667C131.876 2.88333 132.319 2.25 132.892 1.71667C133.464 1.17222 134.138 0.75 134.912 0.45C135.686 0.15 136.528 0 137.437 0C138.358 0 139.199 0.15 139.963 0.45C140.737 0.75 141.41 1.17222 141.983 1.71667C142.555 2.25 142.999 2.88333 143.313 3.61667C143.627 4.33889 143.784 5.13333 143.784 6C143.784 6.86667 143.627 7.66667 143.313 8.4C142.999 9.13333 142.555 9.76667 141.983 10.3C141.41 10.8333 140.737 11.25 139.963 11.55C139.199 11.85 138.363 12 137.454 12ZM137.437 10.1C138.032 10.1 138.582 10 139.087 9.8C139.592 9.6 140.03 9.31667 140.4 8.95C140.771 8.57222 141.057 8.13889 141.259 7.65C141.472 7.15 141.579 6.6 141.579 6C141.579 5.4 141.472 4.85556 141.259 4.36667C141.057 3.86667 140.771 3.43333 140.4 3.06667C140.03 2.68889 139.592 2.4 139.087 2.2C138.582 2 138.032 1.9 137.437 1.9C136.843 1.9 136.293 2 135.788 2.2C135.294 2.4 134.856 2.68889 134.474 3.06667C134.104 3.43333 133.812 3.86667 133.599 4.36667C133.397 4.85556 133.296 5.4 133.296 6C133.296 6.58889 133.397 7.13333 133.599 7.63333C133.812 8.13333 134.104 8.57222 134.474 8.95C134.845 9.31667 135.282 9.6 135.788 9.8C136.293 10 136.843 10.1 137.437 10.1Z" fill="#DF4DA0"/>
<path d="M146.104 11.8333V0.166666H147.906L153.057 8.68333H152.114L157.182 0.166666H158.983L159 11.8333H156.929L156.912 3.38333H157.35L153.04 10.5H152.064L147.687 3.38333H148.192V11.8333H146.104Z" fill="#DF4DA0"/>
</svg>
