<svg width="122" height="51" viewBox="0 0 122 51" fill="none" xmlns="http://www.w3.org/2000/svg">
<rect x="0.5" y="0.645508" width="121" height="49" rx="24.5" fill="white" stroke="#3A4C79" stroke-dasharray="7 7"/>
<rect x="6" y="6.14551" width="110" height="38" rx="19" fill="#3A4C79"/>
<path d="M24 21.145V15.0595C24 14.9325 24.0411 14.8233 24.1234 14.7321C24.2057 14.6408 24.3062 14.5952 24.4251 14.5952H30.3575C30.4763 14.5952 30.5769 14.6408 30.6592 14.7321C30.7445 14.8233 30.7871 14.9325 30.7871 15.0595V21.145C30.7871 21.2721 30.7429 21.3813 30.6546 21.4725C30.5693 21.5605 30.4672 21.6045 30.3484 21.6045H29.4983C29.3794 21.6045 29.2774 21.5605 29.192 21.4725C29.1067 21.3813 29.0641 21.2721 29.0641 21.145V15.9785H25.7231V21.145C25.7231 21.2721 25.6804 21.3813 25.5951 21.4725C25.5128 21.5605 25.4123 21.6045 25.2934 21.6045H24.4342C24.3154 21.6045 24.2133 21.5605 24.128 21.4725C24.0427 21.3813 24 21.2721 24 21.145Z" fill="white"/>
<path d="M32.4279 20.9886C31.9587 20.5128 31.7241 19.8285 31.7241 18.9357C31.7241 18.0396 31.9602 17.352 32.4325 16.873C32.9048 16.3907 33.5599 16.1496 34.3978 16.1496C35.2357 16.1496 35.8893 16.3842 36.3585 16.8534C36.8277 17.3194 37.0624 17.989 37.0624 18.8624V19.141C37.0624 19.2289 37.0349 19.3023 36.9801 19.3609C36.9283 19.4163 36.8613 19.444 36.779 19.444H33.3374C33.3679 19.8448 33.4746 20.1365 33.6574 20.319C33.8432 20.5014 34.1388 20.5927 34.544 20.5927C34.9493 20.5927 35.2266 20.4949 35.3759 20.2994C35.5252 20.1039 35.7095 20.0045 35.9289 20.0012H36.6099C36.6922 20.0012 36.7592 20.0306 36.811 20.0892C36.8658 20.1446 36.8933 20.2163 36.8933 20.3043C36.8933 21.2395 36.0599 21.7055 34.3932 21.7022C33.5523 21.7022 32.8972 21.4644 32.4279 20.9886ZM33.3283 18.4127H35.4536C35.4231 17.6436 35.0696 17.2591 34.3932 17.2591C33.7198 17.2591 33.3649 17.6436 33.3283 18.4127Z" fill="white"/>
<path d="M37.9033 22.9535V16.5504C37.9033 16.4624 37.9292 16.3907 37.981 16.3353C38.0359 16.2766 38.1029 16.2473 38.1821 16.2473H39.0642C39.1434 16.2473 39.209 16.2766 39.2607 16.3353C39.3156 16.3907 39.343 16.4624 39.343 16.5504V16.697C39.8244 16.332 40.3836 16.1496 41.0204 16.1496C41.6572 16.1496 42.1889 16.3907 42.6155 16.873C43.042 17.352 43.2553 18.0396 43.2553 18.9357C43.2553 19.8285 43.0344 20.5128 42.5926 20.9886C42.1508 21.4644 41.5551 21.7022 40.8056 21.7022C40.4186 21.7022 39.9783 21.6191 39.4847 21.453V22.9535C39.4847 23.0415 39.4573 23.1132 39.4024 23.1686C39.3506 23.2273 39.2851 23.2566 39.2059 23.2566H38.1821C38.1029 23.2566 38.0359 23.2273 37.981 23.1686C37.9292 23.1132 37.9033 23.0415 37.9033 22.9535ZM39.4847 20.3238C39.8778 20.4574 40.2084 20.5242 40.4765 20.5242C40.8939 20.5242 41.1895 20.3972 41.3632 20.143C41.5399 19.8888 41.6282 19.4831 41.6282 18.9259C41.6282 18.3687 41.5445 17.9646 41.3769 17.7137C41.2123 17.4595 40.964 17.3324 40.6319 17.3324C40.3028 17.3324 39.9204 17.4791 39.4847 17.7723V20.3238Z" fill="white"/>
<path d="M44.5213 20.9886C44.0521 20.5128 43.8175 19.8285 43.8175 18.9357C43.8175 18.0396 44.0536 17.352 44.5259 16.873C44.9982 16.3907 45.6533 16.1496 46.4912 16.1496C47.3291 16.1496 47.9827 16.3842 48.4519 16.8534C48.9212 17.3194 49.1558 17.989 49.1558 18.8624V19.141C49.1558 19.2289 49.1284 19.3023 49.0735 19.3609C49.0217 19.4163 48.9547 19.444 48.8724 19.444H45.4309C45.4613 19.8448 45.568 20.1365 45.7508 20.319C45.9367 20.5014 46.2322 20.5927 46.6375 20.5927C47.0427 20.5927 47.32 20.4949 47.4693 20.2994C47.6186 20.1039 47.8029 20.0045 48.0223 20.0012H48.7033C48.7856 20.0012 48.8526 20.0306 48.9044 20.0892C48.9593 20.1446 48.9867 20.2163 48.9867 20.3043C48.9867 21.2395 48.1533 21.7055 46.4866 21.7022C45.6457 21.7022 44.9906 21.4644 44.5213 20.9886ZM45.4217 18.4127H47.547C47.5165 17.6436 47.1631 17.2591 46.4866 17.2591C45.8133 17.2591 45.4583 17.6436 45.4217 18.4127Z" fill="white"/>
<path d="M49.9967 21.3063V16.5504C49.9967 16.4624 50.0226 16.3907 50.0744 16.3353C50.1293 16.2766 50.1963 16.2473 50.2755 16.2473H51.2308C51.313 16.2473 51.3801 16.2766 51.4319 16.3353C51.4867 16.3907 51.5141 16.4624 51.5141 16.5504V19.7617L53.1229 16.5992C53.1717 16.4982 53.2463 16.4151 53.3469 16.35C53.4474 16.2815 53.5449 16.2473 53.6394 16.2473H54.9191C55.0014 16.2473 55.0684 16.2766 55.1202 16.3353C55.1751 16.3907 55.2025 16.4624 55.2025 16.5504V21.3063C55.2025 21.3943 55.1751 21.466 55.1202 21.5214C55.0684 21.5768 55.0014 21.6045 54.9191 21.6045H53.9639C53.8816 21.6045 53.8146 21.5768 53.7628 21.5214C53.711 21.4627 53.6851 21.391 53.6851 21.3063V18.0998L52.0763 21.2525C52.0276 21.347 51.9529 21.4301 51.8524 21.5018C51.7518 21.5703 51.6543 21.6045 51.5598 21.6045H50.2755C50.1933 21.6045 50.1262 21.5768 50.0744 21.5214C50.0226 21.466 49.9967 21.3943 49.9967 21.3063ZM51.0617 14.3948C51.0617 14.2286 51.147 14.1455 51.3176 14.1455H51.6604C51.8097 14.1455 51.9163 14.2286 51.9803 14.3948C52.0809 14.662 52.2865 14.7956 52.5973 14.7956C52.9112 14.7956 53.1168 14.662 53.2143 14.3948C53.2753 14.2286 53.3819 14.1455 53.5343 14.1455H53.8816C54.0492 14.1455 54.133 14.2286 54.133 14.3948C54.133 14.776 53.9913 15.0889 53.708 15.3333C53.4246 15.5777 53.0544 15.6999 52.5973 15.6999C52.1433 15.6999 51.7731 15.5777 51.4867 15.3333C51.2033 15.0889 51.0617 14.776 51.0617 14.3948Z" fill="white"/>
<path d="M55.8515 17.132V16.5504C55.8515 16.4624 55.8774 16.3907 55.9292 16.3353C55.984 16.2766 56.0526 16.2473 56.1349 16.2473H60.6368C60.719 16.2473 60.7861 16.2766 60.8379 16.3353C60.8897 16.3907 60.9156 16.4624 60.9156 16.5504V17.132C60.9156 17.2168 60.8897 17.2884 60.8379 17.3471C60.7861 17.4025 60.719 17.4302 60.6368 17.4302H59.1788V21.3063C59.1788 21.391 59.1514 21.4627 59.0965 21.5214C59.0447 21.5768 58.9777 21.6045 58.8954 21.6045H57.8762C57.7939 21.6045 57.7254 21.5768 57.6705 21.5214C57.6187 21.4627 57.5928 21.391 57.5928 21.3063V17.4302H56.1349C56.0526 17.4302 55.984 17.4025 55.9292 17.3471C55.8774 17.2884 55.8515 17.2168 55.8515 17.132Z" fill="white"/>
<path d="M61.5783 21.3063V16.5504C61.5783 16.4624 61.6042 16.3907 61.656 16.3353C61.7108 16.2766 61.7779 16.2473 61.8571 16.2473H62.8123C62.8946 16.2473 62.9616 16.2766 63.0134 16.3353C63.0682 16.3907 63.0957 16.4624 63.0957 16.5504V19.7617L64.7045 16.5992C64.7532 16.4982 64.8279 16.4151 64.9284 16.35C65.029 16.2815 65.1265 16.2473 65.2209 16.2473H66.5007C66.5829 16.2473 66.65 16.2766 66.7018 16.3353C66.7566 16.3907 66.784 16.4624 66.784 16.5504V21.3063C66.784 21.3943 66.7566 21.466 66.7018 21.5214C66.65 21.5768 66.5829 21.6045 66.5007 21.6045H65.5454C65.4632 21.6045 65.3961 21.5768 65.3443 21.5214C65.2925 21.4627 65.2666 21.391 65.2666 21.3063V18.0998L63.6578 21.2525C63.6091 21.347 63.5344 21.4301 63.4339 21.5018C63.3333 21.5703 63.2358 21.6045 63.1414 21.6045H61.8571C61.7748 21.6045 61.7078 21.5768 61.656 21.5214C61.6042 21.466 61.5783 21.3943 61.5783 21.3063Z" fill="white"/>
<path d="M70.7146 21.3063V20.7247C70.7146 20.6367 70.7405 20.565 70.7923 20.5096C70.8472 20.4509 70.9157 20.4216 70.998 20.4216H71.3545L71.9806 17.7284C72.2122 16.741 72.977 16.2473 74.275 16.2473H76.35C76.4323 16.2473 76.4993 16.2766 76.5511 16.3353C76.6059 16.3907 76.6334 16.4624 76.6334 16.5504V21.3063C76.6334 21.391 76.6059 21.4627 76.5511 21.5214C76.4993 21.5768 76.4323 21.6045 76.35 21.6045H70.998C70.9157 21.6045 70.8472 21.5768 70.7923 21.5214C70.7405 21.4627 70.7146 21.391 70.7146 21.3063ZM72.849 20.4216H75.052V17.4302H74.2247C73.7829 17.4302 73.5026 17.6697 73.3838 18.1487L72.849 20.4216Z" fill="white"/>
<path d="M78.1873 20.9984C77.712 20.5291 77.4743 19.8383 77.4743 18.9259C77.4743 18.0102 77.712 17.3194 78.1873 16.8534C78.6626 16.3842 79.3452 16.1496 80.2349 16.1496C81.1276 16.1496 81.8117 16.3842 82.287 16.8534C82.7623 17.3194 83 18.0102 83 18.9259C83 19.8383 82.7623 20.5291 82.287 20.9984C81.8117 21.4676 81.1276 21.7022 80.2349 21.7022C79.3452 21.7022 78.6626 21.4676 78.1873 20.9984ZM79.3436 17.655C79.1547 17.919 79.0603 18.341 79.0603 18.921C79.0603 19.501 79.1547 19.9247 79.3436 20.1919C79.5326 20.4591 79.8296 20.5927 80.2349 20.5927C80.6432 20.5927 80.9418 20.4591 81.1307 20.1919C81.3226 19.9247 81.4186 19.501 81.4186 18.921C81.4186 18.341 81.3226 17.919 81.1307 17.655C80.9418 17.3911 80.6432 17.2591 80.2349 17.2591C79.8296 17.2591 79.5326 17.3911 79.3436 17.655Z" fill="white"/>
<path d="M34.4709 34.0975V29.3415C34.4709 29.2535 34.4968 29.1818 34.5486 29.1265C34.6035 29.0678 34.6705 29.0385 34.7497 29.0385H39.3567C39.439 29.0385 39.506 29.0678 39.5578 29.1265C39.6096 29.1818 39.6355 29.2535 39.6355 29.3415V34.0975C39.6355 34.1855 39.6096 34.2571 39.5578 34.3125C39.506 34.3679 39.439 34.3956 39.3567 34.3956H38.3375C38.2552 34.3956 38.1867 34.3679 38.1318 34.3125C38.08 34.2539 38.0541 34.1822 38.0541 34.0975V30.2213H36.0523V34.0975C36.0523 34.1855 36.0249 34.2571 35.97 34.3125C35.9182 34.3679 35.8527 34.3956 35.7735 34.3956H34.7497C34.6674 34.3956 34.6004 34.3679 34.5486 34.3125C34.4968 34.2571 34.4709 34.1855 34.4709 34.0975Z" fill="white"/>
<path d="M41.1895 33.7895C40.7142 33.3203 40.4765 32.6295 40.4765 31.7171C40.4765 30.8014 40.7142 30.1106 41.1895 29.6446C41.6648 29.1753 42.3473 28.9407 43.237 28.9407C44.1298 28.9407 44.8139 29.1753 45.2892 29.6446C45.7645 30.1106 46.0022 30.8014 46.0022 31.7171C46.0022 32.6295 45.7645 33.3203 45.2892 33.7895C44.8139 34.2588 44.1298 34.4934 43.237 34.4934C42.3473 34.4934 41.6648 34.2588 41.1895 33.7895ZM42.3458 30.4462C42.1569 30.7101 42.0624 31.1321 42.0624 31.7122C42.0624 32.2922 42.1569 32.7158 42.3458 32.983C42.5347 33.2502 42.8318 33.3838 43.237 33.3838C43.6453 33.3838 43.9439 33.2502 44.1329 32.983C44.3248 32.7158 44.4208 32.2922 44.4208 31.7122C44.4208 31.1321 44.3248 30.7101 44.1329 30.4462C43.9439 30.1822 43.6453 30.0503 43.237 30.0503C42.8318 30.0503 42.5347 30.1822 42.3458 30.4462Z" fill="white"/>
<path d="M51.8981 34.1806C51.8981 34.3239 51.8188 34.3956 51.6604 34.3956H50.7966C50.5041 34.3956 50.271 34.2425 50.0973 33.9362L49.5168 32.9244C49.267 32.491 48.9044 32.2743 48.4291 32.2743V34.0975C48.4291 34.1855 48.4017 34.2571 48.3468 34.3125C48.295 34.3679 48.2295 34.3956 48.1503 34.3956H47.1265C47.0442 34.3956 46.9772 34.3679 46.9254 34.3125C46.8736 34.2571 46.8477 34.1855 46.8477 34.0975V29.3415C46.8477 29.2535 46.8736 29.1818 46.9254 29.1265C46.9802 29.0678 47.0473 29.0385 47.1265 29.0385H48.1503C48.2326 29.0385 48.2996 29.0678 48.3514 29.1265C48.4032 29.1818 48.4291 29.2535 48.4291 29.3415V31.1598C48.9593 31.1598 49.3218 30.9399 49.5168 30.5L49.9556 29.5028C50.0166 29.3627 50.1064 29.2503 50.2253 29.1656C50.3441 29.0808 50.4721 29.0385 50.6092 29.0385H51.473C51.6254 29.0385 51.7015 29.102 51.7015 29.2291C51.7015 29.3008 51.6772 29.392 51.6284 29.5028L51.0388 30.8323C50.9383 31.0539 50.8011 31.2446 50.6275 31.4042C50.4538 31.5639 50.2664 31.6665 50.0653 31.7122C50.4401 31.8327 50.7646 32.126 51.0388 32.592L51.8158 33.9362C51.8676 34.0307 51.895 34.1121 51.8981 34.1806Z" fill="white"/>
<path d="M53.5343 34.904L54.133 34.9871C54.5626 34.9871 54.8628 34.6498 55.0334 33.9753C54.5154 33.9753 54.0827 33.8091 53.7354 33.4767C53.388 33.1411 53.0894 32.5464 52.8396 31.6926L52.1586 29.3317C52.1494 29.3057 52.1449 29.2763 52.1449 29.2438C52.1449 29.2079 52.1631 29.1656 52.1997 29.1167C52.2393 29.0678 52.2972 29.0417 52.3734 29.0385H53.3286C53.417 29.0385 53.5008 29.0711 53.58 29.1362C53.6623 29.1981 53.7156 29.2763 53.74 29.3708L54.3387 31.4433C54.488 31.9517 54.6388 32.3036 54.7912 32.4991C54.9466 32.6946 55.1294 32.7924 55.3396 32.7924L56.2491 29.3708C56.2735 29.2763 56.3207 29.1981 56.3908 29.1362C56.4639 29.0711 56.5447 29.0385 56.633 29.0385H57.5974C57.6736 29.0385 57.73 29.0645 57.7665 29.1167C57.8031 29.1688 57.8214 29.2128 57.8214 29.2486C57.8214 29.2812 57.8183 29.3089 57.8122 29.3317L56.6148 33.8971C56.4015 34.7052 56.1364 35.282 55.8195 35.6274C55.5057 35.9728 55.1004 36.1455 54.6038 36.1455C54.1071 36.1455 53.7552 36.126 53.548 36.0869C53.3438 36.0478 53.2159 35.9989 53.1641 35.9402C53.1123 35.8848 53.0864 35.8196 53.0864 35.7447V35.207C53.0864 35.119 53.1123 35.0457 53.1641 34.9871C53.2159 34.9317 53.2829 34.904 53.3652 34.904H53.5343Z" fill="white"/>
<path d="M58.4749 34.0975V29.3415C58.4749 29.2535 58.5008 29.1818 58.5526 29.1265C58.6075 29.0678 58.6745 29.0385 58.7537 29.0385H63.3608C63.443 29.0385 63.5101 29.0678 63.5619 29.1265C63.6137 29.1818 63.6396 29.2535 63.6396 29.3415V34.0975C63.6396 34.1855 63.6137 34.2571 63.5619 34.3125C63.5101 34.3679 63.443 34.3956 63.3608 34.3956H62.3415C62.2593 34.3956 62.1907 34.3679 62.1359 34.3125C62.0841 34.2539 62.0582 34.1822 62.0582 34.0975V30.2213H60.0563V34.0975C60.0563 34.1855 60.0289 34.2571 59.974 34.3125C59.9223 34.3679 59.8567 34.3956 59.7775 34.3956H58.7537C58.6715 34.3956 58.6044 34.3679 58.5526 34.3125C58.5008 34.2571 58.4749 34.1855 58.4749 34.0975Z" fill="white"/>
<path d="M65.1935 33.7895C64.7182 33.3203 64.4805 32.6295 64.4805 31.7171C64.4805 30.8014 64.7182 30.1106 65.1935 29.6446C65.6688 29.1753 66.3514 28.9407 67.2411 28.9407C68.1338 28.9407 68.8179 29.1753 69.2932 29.6446C69.7685 30.1106 70.0062 30.8014 70.0062 31.7171C70.0062 32.6295 69.7685 33.3203 69.2932 33.7895C68.8179 34.2588 68.1338 34.4934 67.2411 34.4934C66.3514 34.4934 65.6688 34.2588 65.1935 33.7895ZM66.3498 30.4462C66.1609 30.7101 66.0665 31.1321 66.0665 31.7122C66.0665 32.2922 66.1609 32.7158 66.3498 32.983C66.5387 33.2502 66.8358 33.3838 67.2411 33.3838C67.6494 33.3838 67.948 33.2502 68.1369 32.983C68.3288 32.7158 68.4248 32.2922 68.4248 31.7122C68.4248 31.1321 68.3288 30.7101 68.1369 30.4462C67.948 30.1822 67.6494 30.0503 67.2411 30.0503C66.8358 30.0503 66.5387 30.1822 66.3498 30.4462Z" fill="white"/>
<path d="M75.9021 34.1806C75.9021 34.3239 75.8229 34.3956 75.6644 34.3956H74.8006C74.5081 34.3956 74.275 34.2425 74.1013 33.9362L73.5209 32.9244C73.271 32.491 72.9084 32.2743 72.4331 32.2743V34.0975C72.4331 34.1855 72.4057 34.2571 72.3508 34.3125C72.299 34.3679 72.2335 34.3956 72.1543 34.3956H71.1305C71.0483 34.3956 70.9812 34.3679 70.9294 34.3125C70.8776 34.2571 70.8517 34.1855 70.8517 34.0975V29.3415C70.8517 29.2535 70.8776 29.1818 70.9294 29.1265C70.9843 29.0678 71.0513 29.0385 71.1305 29.0385H72.1543C72.2366 29.0385 72.3036 29.0678 72.3554 29.1265C72.4072 29.1818 72.4331 29.2535 72.4331 29.3415V31.1598C72.9633 31.1598 73.3259 30.9399 73.5209 30.5L73.9596 29.5028C74.0206 29.3627 74.1105 29.2503 74.2293 29.1656C74.3481 29.0808 74.4761 29.0385 74.6132 29.0385H75.477C75.6294 29.0385 75.7056 29.102 75.7056 29.2291C75.7056 29.3008 75.6812 29.392 75.6324 29.5028L75.0428 30.8323C74.9423 31.0539 74.8052 31.2446 74.6315 31.4042C74.4578 31.5639 74.2704 31.6665 74.0693 31.7122C74.4441 31.8327 74.7686 32.126 75.0428 32.592L75.8198 33.9362C75.8716 34.0307 75.899 34.1121 75.9021 34.1806Z" fill="white"/>
<path d="M88 25H98M98 25L94 28M98 25L94 22" stroke="white" stroke-width="0.671512" stroke-linecap="round" stroke-linejoin="round"/>
</svg>
